<svg width="1536" height="1896" viewBox="0 0 1536 1896" fill="none" xmlns="http://www.w3.org/2000/svg">
<path d="M263.935 127.557C248.551 122.538 230.412 103.2 230.412 103.2C230.412 103.2 212.272 122.538 196.888 127.557C181.391 132.612 155.146 127.557 155.146 127.557C155.146 127.557 151.838 154.074 142.247 167.255C132.699 180.377 108.629 191.68 108.629 191.68C108.629 191.68 121.47 214.972 121.47 231.2C121.47 247.428 108.629 270.72 108.629 270.72C108.629 270.72 132.699 282.023 142.247 295.145C151.838 308.326 155.146 334.844 155.146 334.844C155.146 334.844 181.391 329.788 196.888 334.844C212.272 339.863 230.412 359.2 230.412 359.2C230.412 359.2 248.551 339.863 263.935 334.844C279.433 329.788 305.677 334.844 305.677 334.844C305.677 334.844 308.985 308.326 318.576 295.145C328.124 282.023 352.194 270.72 352.194 270.72C352.194 270.72 339.353 247.428 339.353 231.2C339.353 214.972 352.194 191.68 352.194 191.68C352.194 191.68 328.124 180.377 318.576 167.255C308.985 154.074 305.677 127.557 305.677 127.557C305.677 127.557 279.433 132.612 263.935 127.557Z" fill="url(#paint0_linear_6_140)"/>
<path fill-rule="evenodd" clip-rule="evenodd" d="M624.329 128.288C624.329 128.288 637.933 142.791 649.471 146.555C661.094 150.347 680.778 146.555 680.778 146.555C680.778 146.555 683.259 166.444 690.452 176.33C697.613 186.171 715.665 194.648 715.665 194.648C715.665 194.648 706.035 212.117 706.035 224.288C706.035 236.459 715.665 253.928 715.665 253.928C715.665 253.928 697.613 262.405 690.452 272.247C683.259 282.132 680.778 302.021 680.778 302.021C680.778 302.021 672.789 300.482 663.985 300.345C664.037 299.441 664.063 298.531 664.063 297.614C664.063 274.308 647.032 254.98 624.736 251.397C616.67 224.603 591.819 205.088 562.394 205.088C554.321 205.088 546.594 206.558 539.463 209.242C536.656 201.293 532.992 194.648 532.992 194.648C532.992 194.648 551.044 186.171 558.205 176.33C565.399 166.444 567.879 146.555 567.879 146.555C567.879 146.555 587.563 150.347 599.186 146.555C610.724 142.791 624.329 128.288 624.329 128.288ZM653.667 301.012C652.193 301.263 650.781 301.594 649.471 302.021C637.933 305.785 624.329 320.288 624.329 320.288C624.329 320.288 610.724 305.785 599.186 302.021C587.563 298.229 567.879 302.021 567.879 302.021C567.879 302.021 565.399 282.132 558.205 272.247C551.044 262.405 532.992 253.928 532.992 253.928C532.992 253.928 542.623 236.459 542.623 224.288C542.623 222.663 542.451 220.943 542.153 219.183C548.416 216.695 555.245 215.328 562.394 215.328C589.578 215.328 612.144 235.101 616.494 261.05C616.746 261.045 616.998 261.042 617.252 261.042C637.45 261.042 653.823 277.416 653.823 297.614C653.823 298.759 653.77 299.893 653.667 301.012Z" fill="url(#paint1_linear_6_140)"/>
<path d="M617.253 334.185C637.45 334.184 653.823 317.811 653.823 297.614C653.823 277.416 637.45 261.042 617.252 261.042C616.998 261.042 616.746 261.045 616.494 261.05C612.144 235.102 589.578 215.328 562.394 215.328C541.868 215.328 523.975 226.601 514.569 243.294C512.277 242.94 509.929 242.757 507.538 242.757C482.291 242.757 461.824 263.224 461.824 288.471C461.824 313.718 482.291 334.185 507.538 334.185C507.539 334.185 507.538 334.185 507.538 334.185L617.253 334.185Z" fill="url(#paint2_linear_6_140)"/>
<path d="M1034.5 225.965L1049.1 220.205L1054.86 205.6L1060.62 220.205L1075.22 225.965L1060.62 231.725L1054.86 246.329L1049.1 231.725L1034.5 225.965Z" fill="url(#paint3_linear_6_140)"/>
<path d="M972.8 130.353L992.272 122.673L999.952 103.2L1007.63 122.673L1027.1 130.353L1007.63 138.033L999.952 157.506L992.272 138.033L972.8 130.353Z" fill="url(#paint4_linear_6_140)"/>
<path d="M1062.8 286.301C1053.32 286.372 1043.68 285.384 1034.03 283.243C965.009 267.943 921.463 199.59 936.764 130.573C938.904 120.92 942.082 111.765 946.154 103.2C887.832 103.637 835.422 144.156 822.261 203.52C806.961 272.536 850.506 340.889 919.523 356.19C978.887 369.35 1037.76 338.975 1062.8 286.301Z" fill="url(#paint5_linear_6_140)"/>
<path fill-rule="evenodd" clip-rule="evenodd" d="M1411.94 263.321C1419.18 264.926 1426.41 265.667 1433.52 265.614C1422.02 289.806 1401 307.727 1376.21 315.718C1378.55 310.149 1379.84 304.032 1379.84 297.614C1379.84 274.308 1362.81 254.98 1340.51 251.397C1332.45 224.603 1307.6 205.088 1278.17 205.088C1268.78 205.088 1259.87 207.075 1251.81 210.648C1252.15 208.278 1252.59 205.903 1253.11 203.528C1262.98 159.005 1302.29 128.615 1346.03 128.288C1342.98 134.712 1340.59 141.578 1338.99 148.818C1327.51 200.581 1360.17 251.845 1411.94 263.321ZM1362.69 319.014C1350.87 320.996 1338.48 320.783 1326.06 318.03C1280.69 307.972 1250 267.349 1250.83 222.614C1258.88 217.979 1268.22 215.328 1278.17 215.328C1305.35 215.328 1327.92 235.101 1332.27 261.05C1332.52 261.045 1332.77 261.042 1333.03 261.042C1353.23 261.042 1369.6 277.416 1369.6 297.614C1369.6 305.605 1367.04 312.997 1362.69 319.014Z" fill="url(#paint6_linear_6_140)"/>
<path d="M1333.03 334.185C1353.23 334.184 1369.6 317.811 1369.6 297.614C1369.6 277.416 1353.23 261.042 1333.03 261.042C1332.77 261.042 1332.52 261.045 1332.27 261.05C1327.92 235.101 1305.35 215.328 1278.17 215.328C1257.64 215.328 1239.75 226.601 1230.34 243.294C1228.05 242.94 1225.71 242.757 1223.31 242.757C1198.07 242.757 1177.6 263.224 1177.6 288.471C1177.6 313.718 1198.07 334.185 1223.31 334.185C1223.31 334.185 1223.31 334.185 1223.31 334.185L1333.03 334.185Z" fill="url(#paint7_linear_6_140)"/>
<path d="M309.639 668.716C336.568 668.715 358.399 646.884 358.399 619.954C358.399 593.024 336.567 571.192 309.637 571.192C309.299 571.192 308.962 571.196 308.626 571.203C302.827 536.605 272.739 510.24 236.493 510.24C209.125 510.24 185.268 525.271 172.726 547.528C169.671 547.056 166.54 546.811 163.352 546.811C129.689 546.811 102.4 574.101 102.4 607.764C102.4 641.427 129.689 668.716 163.352 668.716C163.353 668.716 163.352 668.716 163.352 668.716L309.639 668.716Z" fill="url(#paint8_linear_6_140)"/>
<path fill-rule="evenodd" clip-rule="evenodd" d="M494.08 658.72C491.252 658.72 488.96 661.012 488.96 663.84C488.96 666.668 491.252 668.96 494.08 668.96H711.68C714.508 668.96 716.8 666.668 716.8 663.84C716.8 661.012 714.508 658.72 711.68 658.72H494.08ZM465.92 679.2C463.092 679.2 460.8 681.492 460.8 684.32C460.8 687.148 463.092 689.44 465.92 689.44H683.52C686.348 689.44 688.64 687.148 688.64 684.32C688.64 681.492 686.348 679.2 683.52 679.2H465.92Z" fill="url(#paint9_linear_6_140)"/>
<path d="M668.039 648.492C694.968 648.491 716.799 626.66 716.799 599.73C716.799 572.8 694.967 550.968 668.037 550.968C667.699 550.968 667.362 550.972 667.026 550.979C661.227 516.381 631.139 490.016 594.893 490.016C567.525 490.016 543.668 505.047 531.126 527.304C528.071 526.832 524.94 526.587 521.752 526.587C488.089 526.587 460.8 553.877 460.8 587.54C460.8 621.203 488.089 648.492 521.752 648.492C521.753 648.492 521.752 648.492 521.752 648.492L668.039 648.492Z" fill="url(#paint10_linear_6_140)"/>
<path d="M1034.77 656.706L1042.94 646.483L1051.12 656.706C1052.73 658.584 1053.7 661.022 1053.7 663.687C1053.7 669.625 1048.88 674.439 1042.94 674.439C1037.01 674.439 1032.19 669.625 1032.19 663.687C1032.19 661.022 1033.16 658.584 1034.77 656.706Z" fill="url(#paint11_linear_6_140)"/>
<path d="M984.168 680.542L995.072 666.912L1005.98 680.542C1008.12 683.047 1009.41 686.297 1009.41 689.85C1009.41 697.767 1002.99 704.186 995.072 704.186C987.154 704.186 980.736 697.767 980.736 689.85C980.736 686.297 982.028 683.047 984.168 680.542Z" fill="url(#paint12_linear_6_140)"/>
<path d="M939.022 656.706L947.2 646.483L955.378 656.706C956.983 658.584 957.952 661.022 957.952 663.687C957.952 669.625 953.138 674.439 947.2 674.439C941.262 674.439 936.448 669.625 936.448 663.687C936.448 661.022 937.417 658.584 939.022 656.706Z" fill="url(#paint13_linear_6_140)"/>
<path d="M888.424 680.542L899.328 666.912L910.232 680.542C912.372 683.047 913.664 686.297 913.664 689.85C913.664 697.767 907.245 704.186 899.328 704.186C891.41 704.186 884.992 697.767 884.992 689.85C884.992 686.297 886.284 683.047 888.424 680.542Z" fill="url(#paint14_linear_6_140)"/>
<path d="M843.278 656.706L851.456 646.483L859.634 656.706C861.239 658.584 862.208 661.022 862.208 663.687C862.208 669.625 857.394 674.439 851.456 674.439C845.518 674.439 840.704 669.625 840.704 663.687C840.704 661.022 841.673 658.584 843.278 656.706Z" fill="url(#paint15_linear_6_140)"/>
<path d="M1026.44 632.364C1053.37 632.363 1075.2 610.532 1075.2 583.602C1075.2 556.672 1053.37 534.84 1026.44 534.84C1026.1 534.84 1025.76 534.844 1025.43 534.851C1019.63 500.253 989.539 473.888 953.293 473.888C925.925 473.888 902.068 488.919 889.526 511.176C886.471 510.704 883.34 510.459 880.152 510.459C846.489 510.459 819.2 537.749 819.2 571.412C819.2 605.075 846.489 632.364 880.152 632.364C880.153 632.364 880.152 632.364 880.152 632.364L1026.44 632.364Z" fill="url(#paint16_linear_6_140)"/>
<path d="M1361.42 671.554L1369.6 661.331L1377.78 671.554C1379.38 673.432 1380.35 675.87 1380.35 678.535C1380.35 684.473 1375.54 689.287 1369.6 689.287C1363.66 689.287 1358.85 684.473 1358.85 678.535C1358.85 675.87 1359.82 673.432 1361.42 671.554Z" fill="url(#paint17_linear_6_140)"/>
<path d="M1297.42 671.554L1305.6 661.331L1313.78 671.554C1315.38 673.432 1316.35 675.87 1316.35 678.535C1316.35 684.473 1311.54 689.287 1305.6 689.287C1299.66 689.287 1294.85 684.473 1294.85 678.535C1294.85 675.87 1295.82 673.432 1297.42 671.554Z" fill="url(#paint18_linear_6_140)"/>
<path d="M1233.42 671.554L1241.6 661.331L1249.78 671.554C1251.38 673.432 1252.35 675.87 1252.35 678.535C1252.35 684.473 1247.54 689.287 1241.6 689.287C1235.66 689.287 1230.85 684.473 1230.85 678.535C1230.85 675.87 1231.82 673.432 1233.42 671.554Z" fill="url(#paint19_linear_6_140)"/>
<path d="M1384.84 647.212C1411.77 647.211 1433.6 625.38 1433.6 598.45C1433.6 571.52 1411.77 549.688 1384.84 549.688C1384.5 549.688 1384.16 549.692 1383.83 549.699C1378.03 515.101 1347.94 488.736 1311.69 488.736C1284.33 488.736 1260.47 503.767 1247.93 526.024C1244.87 525.552 1241.74 525.307 1238.55 525.307C1204.89 525.307 1177.6 552.597 1177.6 586.26C1177.6 619.923 1204.89 647.212 1238.55 647.212C1238.55 647.212 1238.55 647.212 1238.55 647.212L1384.84 647.212Z" fill="url(#paint20_linear_6_140)"/>
<path d="M337.689 1016.03L338.749 1012.07L334.792 1011.01L329.102 1014.3V1007.73L326.205 1004.83L323.308 1007.73V1014.3L317.618 1011.01L313.661 1012.07L314.721 1016.03L320.411 1019.32L314.721 1022.6L313.661 1026.56L317.618 1027.62L323.308 1024.33V1030.9L326.205 1033.8L329.102 1030.9V1024.33L334.792 1027.62L338.749 1026.56L337.689 1022.6L331.999 1019.32L337.689 1016.03Z" fill="url(#paint21_linear_6_140)"/>
<path d="M293.482 1040.16L294.887 1034.91L289.642 1033.51L282.1 1037.86V1029.15L278.26 1025.31L274.42 1029.15V1037.86L266.878 1033.51L261.632 1034.91L263.038 1040.16L270.58 1044.51L263.038 1048.87L261.632 1054.11L266.878 1055.52L274.42 1051.16V1059.87L278.26 1063.71L282.1 1059.87V1051.16L289.642 1055.52L294.887 1054.11L293.482 1048.87L285.94 1044.51L293.482 1040.16Z" fill="url(#paint22_linear_6_140)"/>
<path d="M241.945 1016.03L243.005 1012.07L239.048 1011.01L233.358 1014.3V1007.73L230.461 1004.83L227.564 1007.73V1014.3L221.874 1011.01L217.917 1012.07L218.977 1016.03L224.667 1019.32L218.977 1022.6L217.917 1026.56L221.874 1027.62L227.564 1024.33V1030.9L230.461 1033.8L233.358 1030.9V1024.33L239.048 1027.62L243.005 1026.56L241.945 1022.6L236.255 1019.32L241.945 1016.03Z" fill="url(#paint23_linear_6_140)"/>
<path d="M197.738 1040.16L199.143 1034.91L193.898 1033.51L186.356 1037.86V1029.15L182.516 1025.31L178.676 1029.15V1037.86L171.134 1033.51L165.888 1034.91L167.294 1040.16L174.836 1044.51L167.294 1048.87L165.888 1054.11L171.134 1055.52L178.676 1051.16V1059.87L182.516 1063.71L186.356 1059.87V1051.16L193.898 1055.52L199.143 1054.11L197.738 1048.87L190.196 1044.51L197.738 1040.16Z" fill="url(#paint24_linear_6_140)"/>
<path d="M146.201 1016.03L147.261 1012.07L143.304 1011.01L137.614 1014.3V1007.73L134.717 1004.83L131.82 1007.73V1014.3L126.13 1011.01L122.173 1012.07L123.233 1016.03L128.923 1019.32L123.233 1022.6L122.173 1026.56L126.13 1027.62L131.82 1024.33V1030.9L134.717 1033.8L137.614 1030.9V1024.33L143.304 1027.62L147.261 1026.56L146.201 1022.6L140.511 1019.32L146.201 1016.03Z" fill="url(#paint25_linear_6_140)"/>
<path d="M309.639 990.764C336.568 990.763 358.399 968.932 358.399 942.002C358.399 915.072 336.567 893.24 309.637 893.24C309.299 893.24 308.962 893.244 308.626 893.251C302.827 858.653 272.739 832.288 236.493 832.288C209.125 832.288 185.268 847.319 172.726 869.576C169.671 869.104 166.54 868.859 163.352 868.859C129.689 868.859 102.4 896.149 102.4 929.812C102.4 963.475 129.689 990.764 163.352 990.764C163.353 990.764 163.352 990.764 163.352 990.764L309.639 990.764Z" fill="url(#paint26_linear_6_140)"/>
<path d="M625.768 1038.94L636.672 1025.31L647.576 1038.94C649.716 1041.45 651.008 1044.7 651.008 1048.25C651.008 1056.17 644.589 1062.59 636.672 1062.59C628.754 1062.59 622.336 1056.17 622.336 1048.25C622.336 1044.7 623.628 1041.45 625.768 1038.94Z" fill="url(#paint27_linear_6_140)"/>
<path d="M484.878 1015.11L493.056 1004.88L501.234 1015.11C502.839 1016.98 503.808 1019.42 503.808 1022.09C503.808 1028.02 498.994 1032.84 493.056 1032.84C487.118 1032.84 482.304 1028.02 482.304 1022.09C482.304 1019.42 483.273 1016.98 484.878 1015.11Z" fill="url(#paint28_linear_6_140)"/>
<path d="M696.089 1016.03L697.149 1012.07L693.192 1011.01L687.502 1014.3V1007.73L684.605 1004.83L681.708 1007.73V1014.3L676.018 1011.01L672.061 1012.07L673.121 1016.03L678.811 1019.32L673.121 1022.6L672.061 1026.56L676.018 1027.62L681.708 1024.33V1030.9L684.605 1033.8L687.502 1030.9V1024.33L693.192 1027.62L697.149 1026.56L696.089 1022.6L690.399 1019.32L696.089 1016.03Z" fill="url(#paint29_linear_6_140)"/>
<path d="M600.345 1016.03L601.405 1012.07L597.448 1011.01L591.758 1014.3V1007.73L588.861 1004.83L585.964 1007.73V1014.3L580.274 1011.01L576.317 1012.07L577.377 1016.03L583.067 1019.32L577.377 1022.6L576.317 1026.56L580.274 1027.62L585.964 1024.33V1030.9L588.861 1033.8L591.758 1030.9V1024.33L597.448 1027.62L601.405 1026.56L600.345 1022.6L594.655 1019.32L600.345 1016.03Z" fill="url(#paint30_linear_6_140)"/>
<path d="M556.138 1040.16L557.543 1034.91L552.298 1033.51L544.756 1037.86V1029.15L540.916 1025.31L537.076 1029.15V1037.86L529.534 1033.51L524.288 1034.91L525.694 1040.16L533.236 1044.51L525.694 1048.87L524.288 1054.11L529.534 1055.52L537.076 1051.16V1059.87L540.916 1063.71L544.756 1059.87V1051.16L552.298 1055.52L557.543 1054.11L556.138 1048.87L548.596 1044.51L556.138 1040.16Z" fill="url(#paint31_linear_6_140)"/>
<path d="M668.039 990.764C694.968 990.763 716.799 968.932 716.799 942.002C716.799 915.072 694.967 893.24 668.037 893.24C667.699 893.24 667.362 893.244 667.026 893.251C661.227 858.653 631.139 832.288 594.893 832.288C567.525 832.288 543.668 847.319 531.126 869.576C528.071 869.104 524.94 868.859 521.752 868.859C488.089 868.859 460.8 896.149 460.8 929.812C460.8 963.475 488.089 990.764 521.752 990.764C521.753 990.764 521.752 990.764 521.752 990.764L668.039 990.764Z" fill="url(#paint32_linear_6_140)"/>
<path d="M1040.63 1060.9L1025.28 1055.91V1039.77L1040.63 1034.78L1050.11 1047.84L1040.63 1060.9Z" fill="url(#paint33_linear_6_140)"/>
<path d="M926.053 1049.14L936.534 1036.86L951.444 1043.04L950.178 1059.13L934.486 1062.9L926.053 1049.14Z" fill="url(#paint34_linear_6_140)"/>
<path d="M847.766 1028.86L863.854 1030.13L870.03 1015.22L857.759 1004.74L843.999 1013.17L847.766 1028.86Z" fill="url(#paint35_linear_6_140)"/>
<path d="M998.025 1008.67L978.432 1055.97C978.432 1055.97 987.341 1044.87 1007.31 1046.83" stroke="url(#paint36_linear_6_140)" stroke-width="7.68" stroke-linecap="round" stroke-linejoin="round"/>
<path d="M957.184 1008.67L949.836 1026.41" stroke="url(#paint37_linear_6_140)" stroke-width="7.68" stroke-linecap="round"/>
<path d="M915.981 1008.67L896.387 1055.97C896.387 1055.97 897.938 1041.82 882.432 1029.09" stroke="url(#paint38_linear_6_140)" stroke-width="7.68" stroke-linecap="round" stroke-linejoin="round"/>
<path d="M1026.44 990.764C1053.37 990.763 1075.2 968.932 1075.2 942.002C1075.2 915.072 1053.37 893.24 1026.44 893.24C1026.1 893.24 1025.76 893.244 1025.43 893.251C1019.63 858.653 989.539 832.288 953.293 832.288C925.925 832.288 902.068 847.319 889.526 869.576C886.471 869.104 883.34 868.859 880.152 868.859C846.489 868.859 819.2 896.149 819.2 929.812C819.2 963.475 846.489 990.764 880.152 990.764C880.153 990.764 880.152 990.764 880.152 990.764L1026.44 990.764Z" fill="url(#paint39_linear_6_140)"/>
<path d="M1393.17 1015.11L1401.34 1004.88L1409.52 1015.11C1411.13 1016.98 1412.1 1019.42 1412.1 1022.09C1412.1 1028.02 1407.28 1032.84 1401.34 1032.84C1395.41 1032.84 1390.59 1028.02 1390.59 1022.09C1390.59 1019.42 1391.56 1016.98 1393.17 1015.11Z" fill="url(#paint40_linear_6_140)"/>
<path d="M1342.57 1038.94L1353.47 1025.31L1364.38 1038.94C1366.52 1041.45 1367.81 1044.7 1367.81 1048.25C1367.81 1056.17 1361.39 1062.59 1353.47 1062.59C1345.55 1062.59 1339.14 1056.17 1339.14 1048.25C1339.14 1044.7 1340.43 1041.45 1342.57 1038.94Z" fill="url(#paint41_linear_6_140)"/>
<path d="M1246.82 1038.94L1257.73 1025.31L1268.63 1038.94C1270.77 1041.45 1272.06 1044.7 1272.06 1048.25C1272.06 1056.17 1265.65 1062.59 1257.73 1062.59C1249.81 1062.59 1243.39 1056.17 1243.39 1048.25C1243.39 1044.7 1244.68 1041.45 1246.82 1038.94Z" fill="url(#paint42_linear_6_140)"/>
<path d="M1201.68 1015.11L1209.86 1004.88L1218.03 1015.11C1219.64 1016.98 1220.61 1019.42 1220.61 1022.09C1220.61 1028.02 1215.79 1032.84 1209.86 1032.84C1203.92 1032.84 1199.1 1028.02 1199.1 1022.09C1199.1 1019.42 1200.07 1016.98 1201.68 1015.11Z" fill="url(#paint43_linear_6_140)"/>
<path fill-rule="evenodd" clip-rule="evenodd" d="M1433.6 942.002C1433.6 968.932 1411.77 990.763 1384.84 990.764H1343.4C1341.81 989.668 1339.91 989.026 1337.91 988.965L1347.53 950.484C1348.72 945.755 1346.4 940.849 1342 938.754C1337.6 936.659 1332.33 937.957 1329.41 941.856L1292.73 990.764H1238.55C1204.89 990.764 1177.6 963.475 1177.6 929.812C1177.6 896.149 1204.89 868.859 1238.55 868.859C1241.74 868.859 1244.87 869.104 1247.93 869.576C1260.47 847.319 1284.33 832.288 1311.69 832.288C1347.94 832.288 1378.03 858.652 1383.83 893.251C1384.16 893.244 1384.5 893.24 1384.84 893.24C1411.77 893.24 1433.6 915.072 1433.6 942.002ZM1305.53 990.764L1306.88 988.96L1321.77 969.11L1337.6 948L1331.2 973.6L1327.36 988.96L1326.91 990.764L1305.53 990.764Z" fill="url(#paint44_linear_6_140)"/>
<path d="M1299.2 999.2L1337.6 948L1324.8 999.2H1337.6L1299.2 1050.4L1312 999.2H1299.2Z" fill="url(#paint45_linear_6_140)"/>
<path fill-rule="evenodd" clip-rule="evenodd" d="M135.68 1350.69C132.852 1350.69 130.56 1352.98 130.56 1355.81C130.56 1358.64 132.852 1360.93 135.68 1360.93H353.28C356.108 1360.93 358.4 1358.64 358.4 1355.81C358.4 1352.98 356.108 1350.69 353.28 1350.69H135.68ZM107.52 1371.17C104.692 1371.17 102.4 1373.46 102.4 1376.29C102.4 1379.12 104.692 1381.41 107.52 1381.41H325.12C327.948 1381.41 330.24 1379.12 330.24 1376.29C330.24 1373.46 327.948 1371.17 325.12 1371.17H107.52Z" fill="url(#paint46_linear_6_140)"/>
<path fill-rule="evenodd" clip-rule="evenodd" d="M230.412 1231.65C230.412 1231.65 244.016 1246.15 255.554 1249.92C267.177 1253.71 286.861 1249.92 286.861 1249.92C286.861 1249.92 289.341 1269.8 296.535 1279.69C303.696 1289.53 321.748 1298.01 321.748 1298.01C321.748 1298.01 312.118 1315.48 312.118 1327.65C312.118 1331.61 313.141 1336.14 314.52 1340.45H146.303C147.683 1336.14 148.706 1331.61 148.706 1327.65C148.706 1315.48 139.075 1298.01 139.075 1298.01C139.075 1298.01 157.127 1289.53 164.288 1279.69C171.482 1269.8 173.962 1249.92 173.962 1249.92C173.962 1249.92 193.646 1253.71 205.269 1249.92C216.807 1246.15 230.412 1231.65 230.412 1231.65Z" fill="url(#paint47_linear_6_140)"/>
<path fill-rule="evenodd" clip-rule="evenodd" d="M494.08 1363.49C491.252 1363.49 488.96 1365.78 488.96 1368.61C488.96 1371.44 491.252 1373.73 494.08 1373.73H711.68C714.508 1373.73 716.8 1371.44 716.8 1368.61C716.8 1365.78 714.508 1363.49 711.68 1363.49H494.08ZM465.92 1383.97C463.092 1383.97 460.8 1386.26 460.8 1389.09C460.8 1391.92 463.092 1394.21 465.92 1394.21H683.52C686.348 1394.21 688.64 1391.92 688.64 1389.09C688.64 1386.26 686.348 1383.97 683.52 1383.97H465.92Z" fill="url(#paint48_linear_6_140)"/>
<path fill-rule="evenodd" clip-rule="evenodd" d="M655.852 1353.25C605.646 1340.63 574.305 1290.24 585.581 1239.38C587.186 1232.14 589.57 1225.27 592.624 1218.85C548.882 1219.18 509.575 1249.56 499.704 1294.09C495.131 1314.72 497.567 1335.26 505.428 1353.25H655.852Z" fill="url(#paint49_linear_6_140)"/>
<path fill-rule="evenodd" clip-rule="evenodd" d="M865.28 1340.19C862.452 1340.19 860.16 1337.9 860.16 1335.07C860.16 1332.24 862.452 1329.95 865.28 1329.95H1050.88C1058.66 1329.95 1064.96 1323.65 1064.96 1315.87C1064.96 1308.1 1058.66 1301.79 1050.88 1301.79H1049.72C1045.67 1301.79 1041.79 1303.4 1038.94 1306.26L1035.3 1309.89C1033.3 1311.89 1030.06 1311.89 1028.06 1309.89C1026.06 1307.89 1026.06 1304.65 1028.06 1302.65L1031.69 1299.02C1036.47 1294.24 1042.96 1291.55 1049.72 1291.55H1050.88C1064.31 1291.55 1075.2 1302.44 1075.2 1315.87C1075.2 1329.3 1064.31 1340.19 1050.88 1340.19H865.28ZM837.12 1350.43C834.292 1350.43 832 1352.72 832 1355.55C832 1358.38 834.292 1360.67 837.12 1360.67H1016.32C1027.62 1360.67 1036.8 1369.87 1036.8 1381.19C1036.8 1392.47 1027.65 1401.63 1016.39 1401.63C1009.92 1401.63 1003.83 1398.56 999.981 1393.36L998.164 1390.91C996.482 1388.63 993.275 1388.15 991.002 1389.84C988.729 1391.52 988.25 1394.72 989.932 1397L991.749 1399.45C997.53 1407.26 1006.67 1411.87 1016.39 1411.87C1033.33 1411.87 1047.04 1398.11 1047.04 1381.19C1047.04 1364.23 1033.3 1350.43 1016.32 1350.43H837.12Z" fill="url(#paint50_linear_6_140)"/>
<path d="M974.629 1319.79C994.826 1319.78 1011.2 1303.41 1011.2 1283.21C1011.2 1263.02 994.826 1246.64 974.628 1246.64C974.374 1246.64 974.122 1246.64 973.87 1246.65C969.52 1220.7 946.954 1200.93 919.77 1200.93C899.244 1200.93 881.351 1212.2 871.945 1228.89C869.653 1228.54 867.305 1228.36 864.914 1228.36C839.667 1228.36 819.2 1248.82 819.2 1274.07C819.2 1299.32 839.667 1319.79 864.914 1319.79C864.914 1319.79 864.914 1319.79 864.914 1319.79L974.629 1319.79Z" fill="url(#paint51_linear_6_140)"/>
<path fill-rule="evenodd" clip-rule="evenodd" d="M1433.6 1305.78C1433.6 1332.71 1411.77 1354.54 1384.84 1354.54H1325.37L1334.73 1317.08C1335.92 1312.35 1333.6 1307.44 1329.2 1305.35C1324.8 1303.25 1319.53 1304.55 1316.61 1308.45L1282.04 1354.54H1238.55C1204.89 1354.54 1177.6 1327.25 1177.6 1293.59C1177.6 1259.92 1204.89 1232.64 1238.55 1232.64C1241.74 1232.64 1244.87 1232.88 1247.93 1233.35C1260.47 1211.09 1284.32 1196.06 1311.69 1196.06C1347.94 1196.06 1378.03 1222.43 1383.83 1257.03C1384.16 1257.02 1384.5 1257.02 1384.84 1257.02C1411.77 1257.02 1433.6 1278.85 1433.6 1305.78ZM1294.84 1354.54L1308.97 1335.7L1324.8 1314.59L1318.4 1340.19L1314.81 1354.54L1294.84 1354.54Z" fill="url(#paint52_linear_6_140)"/>
<path d="M1286.4 1365.79L1324.8 1314.59L1312 1365.79H1324.8L1286.4 1416.99L1299.2 1365.79H1286.4Z" fill="url(#paint53_linear_6_140)"/>
<path d="M121.6 1754.91H339.2" stroke="url(#paint54_linear_6_140)" stroke-width="10.24" stroke-linecap="round"/>
<path fill-rule="evenodd" clip-rule="evenodd" d="M230.412 1643.55C230.412 1643.55 244.016 1658.06 255.554 1661.82C267.177 1665.61 286.861 1661.82 286.861 1661.82C286.861 1661.82 289.341 1681.71 296.535 1691.59C303.696 1701.43 321.748 1709.91 321.748 1709.91C321.748 1709.91 312.118 1727.38 312.118 1739.55L148.706 1739.55C148.705 1727.38 139.075 1709.91 139.075 1709.91C139.075 1709.91 157.127 1701.43 164.288 1691.59C171.482 1681.71 173.962 1661.82 173.962 1661.82C173.962 1661.82 193.646 1665.61 205.269 1661.82C216.807 1658.06 230.412 1643.55 230.412 1643.55Z" fill="url(#paint55_linear_6_140)"/>
<path d="M204.8 1600.54L230.4 1574.94M230.4 1574.94L256 1600.54M230.4 1574.94V1626.14" stroke="url(#paint56_linear_6_140)" stroke-width="10.24" stroke-linecap="round"/>
<path d="M480 1754.91H697.6" stroke="url(#paint57_linear_6_140)" stroke-width="10.24" stroke-linecap="round"/>
<path fill-rule="evenodd" clip-rule="evenodd" d="M588.812 1643.55C588.812 1643.55 602.416 1658.06 613.954 1661.82C625.577 1665.61 645.261 1661.82 645.261 1661.82C645.261 1661.82 647.741 1681.71 654.935 1691.59C662.096 1701.43 680.148 1709.91 680.148 1709.91C680.148 1709.91 670.518 1727.38 670.518 1739.55L507.106 1739.55C507.105 1727.38 497.475 1709.91 497.475 1709.91C497.475 1709.91 515.527 1701.43 522.688 1691.59C529.882 1681.71 532.362 1661.82 532.362 1661.82C532.362 1661.82 552.046 1665.61 563.669 1661.82C575.207 1658.06 588.812 1643.55 588.812 1643.55Z" fill="url(#paint58_linear_6_140)"/>
<path d="M563.2 1600.54L588.8 1626.14M588.8 1626.14L614.4 1600.54M588.8 1626.14V1574.94" stroke="url(#paint59_linear_6_140)" stroke-width="10.24" stroke-linecap="round"/>
<defs>
<linearGradient id="paint0_linear_6_140" x1="102.4" y1="103.2" x2="358.4" y2="359.2" gradientUnits="userSpaceOnUse">
<stop stop-color="#FFC400"/>
<stop offset="1" stop-color="#FF6F00"/>
</linearGradient>
<linearGradient id="paint1_linear_6_140" x1="537.6" y1="135.974" x2="786.888" y2="300.899" gradientUnits="userSpaceOnUse">
<stop stop-color="#FFC400"/>
<stop offset="1" stop-color="#FF6F00"/>
</linearGradient>
<linearGradient id="paint2_linear_6_140" x1="461.824" y1="217.248" x2="653.824" y2="332.448" gradientUnits="userSpaceOnUse">
<stop stop-color="#ECEFF1"/>
<stop offset="1" stop-color="#B0BEC5"/>
</linearGradient>
<linearGradient id="paint3_linear_6_140" x1="1054.86" y1="205.6" x2="1054.86" y2="246.329" gradientUnits="userSpaceOnUse">
<stop stop-color="#EFF1F5"/>
<stop offset="1" stop-color="#B0BEC5"/>
</linearGradient>
<linearGradient id="paint4_linear_6_140" x1="999.952" y1="103.2" x2="999.952" y2="157.506" gradientUnits="userSpaceOnUse">
<stop stop-color="#ECEFF1"/>
<stop offset="1" stop-color="#B0BEC5"/>
</linearGradient>
<linearGradient id="paint5_linear_6_140" x1="819.2" y1="103.2" x2="1075.2" y2="359.2" gradientUnits="userSpaceOnUse">
<stop stop-color="#B388FF"/>
<stop offset="1" stop-color="#7C4DFF"/>
</linearGradient>
<linearGradient id="paint6_linear_6_140" x1="1254.4" y1="135.888" x2="1483.58" y2="307.978" gradientUnits="userSpaceOnUse">
<stop stop-color="#B388FF"/>
<stop offset="1" stop-color="#7C4DFF"/>
</linearGradient>
<linearGradient id="paint7_linear_6_140" x1="1177.6" y1="217.248" x2="1369.6" y2="332.448" gradientUnits="userSpaceOnUse">
<stop stop-color="#ECEFF1"/>
<stop offset="1" stop-color="#B0BEC5"/>
</linearGradient>
<linearGradient id="paint8_linear_6_140" x1="102.4" y1="512.8" x2="358.4" y2="666.4" gradientUnits="userSpaceOnUse">
<stop stop-color="#ECEFF1"/>
<stop offset="1" stop-color="#B0BEC5"/>
</linearGradient>
<linearGradient id="paint9_linear_6_140" x1="460.8" y1="658.72" x2="716.8" y2="688.16" gradientUnits="userSpaceOnUse">
<stop stop-color="#ECEFF1"/>
<stop offset="1" stop-color="#B0BEC5"/>
</linearGradient>
<linearGradient id="paint10_linear_6_140" x1="460.8" y1="492.576" x2="716.8" y2="646.176" gradientUnits="userSpaceOnUse">
<stop stop-color="#ECEFF1"/>
<stop offset="1" stop-color="#B0BEC5"/>
</linearGradient>
<linearGradient id="paint11_linear_6_140" x1="1042.94" y1="646.483" x2="1042.94" y2="674.439" gradientUnits="userSpaceOnUse">
<stop stop-color="#1976D2"/>
<stop offset="1" stop-color="#0D47A1"/>
</linearGradient>
<linearGradient id="paint12_linear_6_140" x1="995.072" y1="666.912" x2="995.072" y2="704.186" gradientUnits="userSpaceOnUse">
<stop stop-color="#1976D2"/>
<stop offset="1" stop-color="#0D47A1"/>
</linearGradient>
<linearGradient id="paint13_linear_6_140" x1="947.2" y1="646.483" x2="947.2" y2="674.439" gradientUnits="userSpaceOnUse">
<stop stop-color="#1976D2"/>
<stop offset="1" stop-color="#0D47A1"/>
</linearGradient>
<linearGradient id="paint14_linear_6_140" x1="899.328" y1="666.912" x2="899.328" y2="704.186" gradientUnits="userSpaceOnUse">
<stop stop-color="#1976D2"/>
<stop offset="1" stop-color="#0D47A1"/>
</linearGradient>
<linearGradient id="paint15_linear_6_140" x1="851.456" y1="646.483" x2="851.456" y2="674.439" gradientUnits="userSpaceOnUse">
<stop stop-color="#1976D2"/>
<stop offset="1" stop-color="#0D47A1"/>
</linearGradient>
<linearGradient id="paint16_linear_6_140" x1="819.2" y1="476.448" x2="1075.2" y2="630.048" gradientUnits="userSpaceOnUse">
<stop stop-color="#ECEFF1"/>
<stop offset="1" stop-color="#B0BEC5"/>
</linearGradient>
<linearGradient id="paint17_linear_6_140" x1="1369.6" y1="661.331" x2="1369.6" y2="689.287" gradientUnits="userSpaceOnUse">
<stop stop-color="#1976D2"/>
<stop offset="1" stop-color="#0D47A1"/>
</linearGradient>
<linearGradient id="paint18_linear_6_140" x1="1305.6" y1="661.331" x2="1305.6" y2="689.287" gradientUnits="userSpaceOnUse">
<stop stop-color="#1976D2"/>
<stop offset="1" stop-color="#0D47A1"/>
</linearGradient>
<linearGradient id="paint19_linear_6_140" x1="1241.6" y1="661.331" x2="1241.6" y2="689.287" gradientUnits="userSpaceOnUse">
<stop stop-color="#1976D2"/>
<stop offset="1" stop-color="#0D47A1"/>
</linearGradient>
<linearGradient id="paint20_linear_6_140" x1="1177.6" y1="491.296" x2="1433.6" y2="644.896" gradientUnits="userSpaceOnUse">
<stop stop-color="#ECEFF1"/>
<stop offset="1" stop-color="#B0BEC5"/>
</linearGradient>
<linearGradient id="paint21_linear_6_140" x1="326.205" y1="1004.83" x2="326.205" y2="1033.8" gradientUnits="userSpaceOnUse">
<stop stop-color="#CFD8DC"/>
<stop offset="1" stop-color="#B0BEC5"/>
</linearGradient>
<linearGradient id="paint22_linear_6_140" x1="278.26" y1="1025.31" x2="278.26" y2="1063.71" gradientUnits="userSpaceOnUse">
<stop stop-color="#CFD8DC"/>
<stop offset="1" stop-color="#B0BEC5"/>
</linearGradient>
<linearGradient id="paint23_linear_6_140" x1="230.461" y1="1004.83" x2="230.461" y2="1033.8" gradientUnits="userSpaceOnUse">
<stop stop-color="#CFD8DC"/>
<stop offset="1" stop-color="#B0BEC5"/>
</linearGradient>
<linearGradient id="paint24_linear_6_140" x1="182.516" y1="1025.31" x2="182.516" y2="1063.71" gradientUnits="userSpaceOnUse">
<stop stop-color="#CFD8DC"/>
<stop offset="1" stop-color="#B0BEC5"/>
</linearGradient>
<linearGradient id="paint25_linear_6_140" x1="134.717" y1="1004.83" x2="134.717" y2="1033.8" gradientUnits="userSpaceOnUse">
<stop stop-color="#CFD8DC"/>
<stop offset="1" stop-color="#B0BEC5"/>
</linearGradient>
<linearGradient id="paint26_linear_6_140" x1="102.4" y1="834.848" x2="358.4" y2="988.448" gradientUnits="userSpaceOnUse">
<stop stop-color="#ECEFF1"/>
<stop offset="1" stop-color="#B0BEC5"/>
</linearGradient>
<linearGradient id="paint27_linear_6_140" x1="636.672" y1="1025.31" x2="636.672" y2="1062.59" gradientUnits="userSpaceOnUse">
<stop stop-color="#1976D2"/>
<stop offset="1" stop-color="#0D47A1"/>
</linearGradient>
<linearGradient id="paint28_linear_6_140" x1="493.056" y1="1004.88" x2="493.056" y2="1032.84" gradientUnits="userSpaceOnUse">
<stop stop-color="#1976D2"/>
<stop offset="1" stop-color="#0D47A1"/>
</linearGradient>
<linearGradient id="paint29_linear_6_140" x1="684.605" y1="1004.83" x2="684.605" y2="1033.8" gradientUnits="userSpaceOnUse">
<stop stop-color="#CFD8DC"/>
<stop offset="1" stop-color="#B0BEC5"/>
</linearGradient>
<linearGradient id="paint30_linear_6_140" x1="588.861" y1="1004.83" x2="588.861" y2="1033.8" gradientUnits="userSpaceOnUse">
<stop stop-color="#CFD8DC"/>
<stop offset="1" stop-color="#B0BEC5"/>
</linearGradient>
<linearGradient id="paint31_linear_6_140" x1="540.916" y1="1025.31" x2="540.916" y2="1063.71" gradientUnits="userSpaceOnUse">
<stop stop-color="#CFD8DC"/>
<stop offset="1" stop-color="#B0BEC5"/>
</linearGradient>
<linearGradient id="paint32_linear_6_140" x1="460.8" y1="834.848" x2="716.8" y2="988.448" gradientUnits="userSpaceOnUse">
<stop stop-color="#ECEFF1"/>
<stop offset="1" stop-color="#B0BEC5"/>
</linearGradient>
<linearGradient id="paint33_linear_6_140" x1="1037.7" y1="1034.78" x2="1037.7" y2="1060.9" gradientUnits="userSpaceOnUse">
<stop stop-color="#CFD8DC"/>
<stop offset="1" stop-color="#B0BEC5"/>
</linearGradient>
<linearGradient id="paint34_linear_6_140" x1="943.989" y1="1039.95" x2="934.486" y2="1062.9" gradientUnits="userSpaceOnUse">
<stop stop-color="#CFD8DC"/>
<stop offset="1" stop-color="#B0BEC5"/>
</linearGradient>
<linearGradient id="paint35_linear_6_140" x1="860.467" y1="1005.86" x2="850.474" y2="1029.98" gradientUnits="userSpaceOnUse">
<stop stop-color="#CFD8DC"/>
<stop offset="1" stop-color="#B0BEC5"/>
</linearGradient>
<linearGradient id="paint36_linear_6_140" x1="992.872" y1="1008.67" x2="992.872" y2="1055.97" gradientUnits="userSpaceOnUse">
<stop stop-color="#CFD8DC"/>
<stop offset="1" stop-color="#B0BEC5"/>
</linearGradient>
<linearGradient id="paint37_linear_6_140" x1="957.646" y1="1008.86" x2="950.298" y2="1026.6" gradientUnits="userSpaceOnUse">
<stop stop-color="#CFD8DC"/>
<stop offset="1" stop-color="#B0BEC5"/>
</linearGradient>
<linearGradient id="paint38_linear_6_140" x1="899.206" y1="1008.67" x2="899.206" y2="1055.97" gradientUnits="userSpaceOnUse">
<stop stop-color="#CFD8DC"/>
<stop offset="1" stop-color="#B0BEC5"/>
</linearGradient>
<linearGradient id="paint39_linear_6_140" x1="819.2" y1="834.848" x2="1075.2" y2="988.448" gradientUnits="userSpaceOnUse">
<stop stop-color="#B0BEC5"/>
<stop offset="1" stop-color="#616161"/>
</linearGradient>
<linearGradient id="paint40_linear_6_140" x1="1401.34" y1="1004.88" x2="1401.34" y2="1032.84" gradientUnits="userSpaceOnUse">
<stop stop-color="#1976D2"/>
<stop offset="1" stop-color="#0D47A1"/>
</linearGradient>
<linearGradient id="paint41_linear_6_140" x1="1353.47" y1="1025.31" x2="1353.47" y2="1062.59" gradientUnits="userSpaceOnUse">
<stop stop-color="#1976D2"/>
<stop offset="1" stop-color="#0D47A1"/>
</linearGradient>
<linearGradient id="paint42_linear_6_140" x1="1257.73" y1="1025.31" x2="1257.73" y2="1062.59" gradientUnits="userSpaceOnUse">
<stop stop-color="#1976D2"/>
<stop offset="1" stop-color="#0D47A1"/>
</linearGradient>
<linearGradient id="paint43_linear_6_140" x1="1209.86" y1="1004.88" x2="1209.86" y2="1032.84" gradientUnits="userSpaceOnUse">
<stop stop-color="#1976D2"/>
<stop offset="1" stop-color="#0D47A1"/>
</linearGradient>
<linearGradient id="paint44_linear_6_140" x1="1177.6" y1="823.36" x2="1375.42" y2="1013.95" gradientUnits="userSpaceOnUse">
<stop stop-color="#B0BEC5"/>
<stop offset="1" stop-color="#616161"/>
</linearGradient>
<linearGradient id="paint45_linear_6_140" x1="1318.4" y1="948" x2="1318.4" y2="1050.4" gradientUnits="userSpaceOnUse">
<stop stop-color="#FFC400"/>
<stop offset="1" stop-color="#FF6F00"/>
</linearGradient>
<linearGradient id="paint46_linear_6_140" x1="102.4" y1="1350.69" x2="358.4" y2="1380.13" gradientUnits="userSpaceOnUse">
<stop stop-color="#ECEFF1"/>
<stop offset="1" stop-color="#B0BEC5"/>
</linearGradient>
<linearGradient id="paint47_linear_6_140" x1="125.468" y1="1228.32" x2="325.754" y2="1475.88" gradientUnits="userSpaceOnUse">
<stop stop-color="#FFC400"/>
<stop offset="1" stop-color="#FF6F00"/>
</linearGradient>
<linearGradient id="paint48_linear_6_140" x1="460.8" y1="1363.49" x2="716.8" y2="1392.93" gradientUnits="userSpaceOnUse">
<stop stop-color="#ECEFF1"/>
<stop offset="1" stop-color="#B0BEC5"/>
</linearGradient>
<linearGradient id="paint49_linear_6_140" x1="236.522" y1="1071.33" x2="323.168" y2="1894.6" gradientUnits="userSpaceOnUse">
<stop stop-color="#B388FF"/>
<stop offset="1" stop-color="#7C4DFF"/>
</linearGradient>
<linearGradient id="paint50_linear_6_140" x1="819.2" y1="1280.8" x2="1075.2" y2="1408.8" gradientUnits="userSpaceOnUse">
<stop stop-color="#ECEFF1"/>
<stop offset="1" stop-color="#B0BEC5"/>
</linearGradient>
<linearGradient id="paint51_linear_6_140" x1="819.2" y1="1202.85" x2="1011.2" y2="1318.05" gradientUnits="userSpaceOnUse">
<stop stop-color="#ECEFF1"/>
<stop offset="1" stop-color="#B0BEC5"/>
</linearGradient>
<linearGradient id="paint52_linear_6_140" x1="1177.6" y1="1201.76" x2="1382.44" y2="1373.1" gradientUnits="userSpaceOnUse">
<stop stop-color="#B0BEC5"/>
<stop offset="1" stop-color="#616161"/>
</linearGradient>
<linearGradient id="paint53_linear_6_140" x1="1305.6" y1="1314.59" x2="1305.6" y2="1416.99" gradientUnits="userSpaceOnUse">
<stop stop-color="#FFC400"/>
<stop offset="1" stop-color="#FF6F00"/>
</linearGradient>
<linearGradient id="paint54_linear_6_140" x1="121.6" y1="1755.41" x2="339.2" y2="1755.41" gradientUnits="userSpaceOnUse">
<stop stop-color="#EFF1F5"/>
<stop offset="1" stop-color="#B0BEC5"/>
</linearGradient>
<linearGradient id="paint55_linear_6_140" x1="125.468" y1="1640.22" x2="325.754" y2="1887.79" gradientUnits="userSpaceOnUse">
<stop stop-color="#FFC400"/>
<stop offset="1" stop-color="#FF6F00"/>
</linearGradient>
<linearGradient id="paint56_linear_6_140" x1="230.4" y1="1574.94" x2="230.4" y2="1626.14" gradientUnits="userSpaceOnUse">
<stop stop-color="#B0BEC5"/>
<stop offset="1" stop-color="#EFF1F5"/>
</linearGradient>
<linearGradient id="paint57_linear_6_140" x1="480" y1="1755.41" x2="697.6" y2="1755.41" gradientUnits="userSpaceOnUse">
<stop stop-color="#EFF1F5"/>
<stop offset="1" stop-color="#B0BEC5"/>
</linearGradient>
<linearGradient id="paint58_linear_6_140" x1="483.868" y1="1640.22" x2="684.154" y2="1887.79" gradientUnits="userSpaceOnUse">
<stop stop-color="#FF6F00"/>
<stop offset="1" stop-color="#C51162"/>
</linearGradient>
<linearGradient id="paint59_linear_6_140" x1="588.8" y1="1574.94" x2="588.8" y2="1626.14" gradientUnits="userSpaceOnUse">
<stop stop-color="#EFF1F5"/>
<stop offset="1" stop-color="#B0BEC5"/>
</linearGradient>
</defs>
</svg>
