<svg width="257" height="257" viewBox="0 0 257 257" fill="none" xmlns="http://www.w3.org/2000/svg">
<path d="M161.935 24.5565C146.551 19.5376 128.412 0.200073 128.412 0.200073C128.412 0.200073 110.272 19.5376 94.8879 24.5565C79.3905 29.6123 53.1461 24.5565 53.1461 24.5565C53.1461 24.5565 49.8384 51.0744 40.2471 64.2553C30.6991 77.3769 6.62939 88.68 6.62939 88.68C6.62939 88.68 19.4702 111.972 19.4702 128.2C19.4702 144.428 6.62939 167.72 6.62939 167.72C6.62939 167.72 30.6991 179.023 40.2471 192.145C49.8384 205.326 53.1461 231.844 53.1461 231.844C53.1461 231.844 79.3905 226.788 94.8879 231.844C110.272 236.863 128.412 256.2 128.412 256.2C128.412 256.2 146.551 236.863 161.935 231.844C177.433 226.788 203.677 231.844 203.677 231.844C203.677 231.844 206.985 205.326 216.576 192.145C226.124 179.023 250.194 167.72 250.194 167.72C250.194 167.72 237.353 144.428 237.353 128.2C237.353 111.972 250.194 88.68 250.194 88.68C250.194 88.68 226.124 77.3769 216.576 64.2553C206.985 51.0744 203.677 24.5565 203.677 24.5565C203.677 24.5565 177.433 29.6123 161.935 24.5565Z" fill="url(#paint0_linear_38_90)"/>
<defs>
<linearGradient id="paint0_linear_38_90" x1="0.400047" y1="0.20005" x2="256.4" y2="256.2" gradientUnits="userSpaceOnUse">
<stop stop-color="#FFC400"/>
<stop offset="1" stop-color="#FF6F00"/>
</linearGradient>
</defs>
</svg>
