<svg width="257" height="257" viewBox="0 0 257 257" fill="none" xmlns="http://www.w3.org/2000/svg">
<path d="M161.935 24.7565C146.551 19.7375 128.412 0.400024 128.412 0.400024C128.412 0.400024 110.272 19.7375 94.8879 24.7565C79.3905 29.8122 53.1461 24.7565 53.1461 24.7565C53.1461 24.7565 49.8384 51.2744 40.2471 64.4553C30.6991 77.5768 6.62939 88.88 6.62939 88.88C6.62939 88.88 19.4702 112.172 19.4702 128.4C19.4702 144.628 6.62939 167.92 6.62939 167.92C6.62939 167.92 30.6991 179.223 40.2471 192.345C49.8384 205.526 53.1461 232.044 53.1461 232.044C53.1461 232.044 79.3905 226.988 94.8879 232.044C110.272 237.062 128.412 256.4 128.412 256.4C128.412 256.4 146.551 237.062 161.935 232.044C177.433 226.988 203.677 232.044 203.677 232.044C203.677 232.044 206.985 205.526 216.576 192.345C226.124 179.223 250.194 167.92 250.194 167.92C250.194 167.92 237.353 144.628 237.353 128.4C237.353 112.172 250.194 88.88 250.194 88.88C250.194 88.88 226.124 77.5768 216.576 64.4553C206.985 51.2744 203.677 24.7565 203.677 24.7565C203.677 24.7565 177.433 29.8122 161.935 24.7565Z" fill="url(#paint0_linear_38_90)"/>
<defs>
<linearGradient id="paint0_linear_38_90" x1="0.400047" y1="0.400002" x2="256.4" y2="256.4" gradientUnits="userSpaceOnUse">
<stop stop-color="#FFC400"/>
<stop offset="1" stop-color="#FF6F00"/>
</linearGradient>
</defs>
</svg>
