<svg width="257" height="257" viewBox="0 0 257 257" fill="none" xmlns="http://www.w3.org/2000/svg">
<path d="M215.497 122.965L230.101 117.205L235.861 102.6L241.62 117.205L256.224 122.965L241.62 128.725L235.861 143.329L230.101 128.725L215.497 122.965Z" fill="url(#paint0_linear_40_15)"/>
<path d="M153.8 27.3529L173.272 19.6729L180.952 0.200012L188.632 19.6729L208.105 27.3529L188.632 35.0329L180.952 54.5059L173.272 35.0329L153.8 27.3529Z" fill="url(#paint1_linear_40_15)"/>
<path d="M243.803 183.301C234.319 183.372 224.679 182.384 215.026 180.243C146.009 164.943 102.463 96.5901 117.764 27.5733C119.904 17.9202 123.082 8.76528 127.154 0.200012C68.8321 0.636712 16.4221 41.1559 3.26148 100.52C-12.0392 169.536 31.5063 237.889 100.523 253.19C159.887 266.35 218.759 235.975 243.803 183.301Z" fill="url(#paint2_linear_40_15)"/>
<defs>
<linearGradient id="paint0_linear_40_15" x1="235.861" y1="102.6" x2="235.861" y2="143.329" gradientUnits="userSpaceOnUse">
<stop stop-color="#EFF1F5"/>
<stop offset="1" stop-color="#B0BEC5"/>
</linearGradient>
<linearGradient id="paint1_linear_40_15" x1="180.952" y1="0.200012" x2="180.952" y2="54.5059" gradientUnits="userSpaceOnUse">
<stop stop-color="#ECEFF1"/>
<stop offset="1" stop-color="#B0BEC5"/>
</linearGradient>
<linearGradient id="paint2_linear_40_15" x1="0.200012" y1="0.200012" x2="256.2" y2="256.2" gradientUnits="userSpaceOnUse">
<stop stop-color="#B388FF"/>
<stop offset="1" stop-color="#7C4DFF"/>
</linearGradient>
</defs>
</svg>
