<svg width="257" height="257" viewBox="0 0 257 257" fill="none" xmlns="http://www.w3.org/2000/svg">
<path d="M207.639 207.916C234.568 207.915 256.399 186.084 256.399 159.154C256.399 132.224 234.567 110.392 207.637 110.392C207.299 110.392 206.962 110.396 206.626 110.403C200.827 75.8045 170.739 49.44 134.493 49.44C107.125 49.44 83.2678 64.4709 70.7262 86.7278C67.6706 86.2562 64.54 86.0115 61.3523 86.0115C27.6893 86.0115 0.399963 113.301 0.399963 146.964C0.399963 180.627 27.6893 207.916 61.3523 207.916C61.3526 207.916 61.3521 207.916 61.3523 207.916L207.639 207.916Z" fill="url(#paint0_linear_14_32)"/>
<defs>
<linearGradient id="paint0_linear_14_32" x1="0.400003" y1="52" x2="256.4" y2="205.6" gradientUnits="userSpaceOnUse">
<stop stop-color="#ECEFF1"/>
<stop offset="1" stop-color="#B0BEC5"/>
</linearGradient>
</defs>
</svg>
