<svg width="257" height="257" viewBox="0 0 257 257" fill="none" xmlns="http://www.w3.org/2000/svg">
<path d="M184.422 210.754L192.6 200.531L200.778 210.754C202.383 212.632 203.352 215.07 203.352 217.735C203.352 223.673 198.538 228.487 192.6 228.487C186.662 228.487 181.848 223.673 181.848 217.735C181.848 215.07 182.817 212.632 184.422 210.754Z" fill="url(#paint0_linear_110_2)"/>
<path d="M120.422 210.754L128.6 200.531L136.778 210.754C138.383 212.632 139.352 215.07 139.352 217.735C139.352 223.673 134.538 228.487 128.6 228.487C122.662 228.487 117.848 223.673 117.848 217.735C117.848 215.07 118.817 212.632 120.422 210.754Z" fill="url(#paint1_linear_110_2)"/>
<path d="M56.422 210.754L64.6 200.531L72.7779 210.754C74.3829 212.632 75.3519 215.07 75.3519 217.735C75.3519 223.673 70.5381 228.487 64.6 228.487C58.6618 228.487 53.848 223.673 53.848 217.735C53.848 215.07 54.8171 212.632 56.422 210.754Z" fill="url(#paint2_linear_110_2)"/>
<path d="M207.839 186.412C234.768 186.411 256.599 164.58 256.599 137.65C256.599 110.72 234.767 88.8883 207.837 88.8883C207.499 88.8883 207.162 88.8918 206.826 88.8987C201.027 54.3005 170.939 27.936 134.693 27.936C107.325 27.936 83.4679 42.9669 70.9262 65.2238C67.8706 64.7521 64.7401 64.5074 61.5524 64.5074C27.8893 64.5074 0.600006 91.7967 0.600006 125.46C0.600006 159.123 27.8893 186.412 61.5524 186.412C61.5526 186.412 61.5521 186.412 61.5524 186.412L207.839 186.412Z" fill="url(#paint3_linear_110_2)"/>
<defs>
<linearGradient id="paint0_linear_110_2" x1="192.6" y1="200.531" x2="192.6" y2="228.487" gradientUnits="userSpaceOnUse">
<stop stop-color="#1976D2"/>
<stop offset="1" stop-color="#0D47A1"/>
</linearGradient>
<linearGradient id="paint1_linear_110_2" x1="128.6" y1="200.531" x2="128.6" y2="228.487" gradientUnits="userSpaceOnUse">
<stop stop-color="#1976D2"/>
<stop offset="1" stop-color="#0D47A1"/>
</linearGradient>
<linearGradient id="paint2_linear_110_2" x1="64.6" y1="200.531" x2="64.6" y2="228.487" gradientUnits="userSpaceOnUse">
<stop stop-color="#1976D2"/>
<stop offset="1" stop-color="#0D47A1"/>
</linearGradient>
<linearGradient id="paint3_linear_110_2" x1="0.600046" y1="30.496" x2="256.6" y2="184.096" gradientUnits="userSpaceOnUse">
<stop stop-color="#ECEFF1"/>
<stop offset="1" stop-color="#B0BEC5"/>
</linearGradient>
</defs>
</svg>
