<svg width="257" height="257" viewBox="0 0 257 257" fill="none" xmlns="http://www.w3.org/2000/svg">
<path d="M184.422 210.554L192.6 200.331L200.778 210.554C202.383 212.432 203.352 214.87 203.352 217.535C203.352 223.473 198.538 228.287 192.6 228.287C186.662 228.287 181.848 223.473 181.848 217.535C181.848 214.87 182.817 212.432 184.422 210.554Z" fill="url(#paint0_linear_110_2)"/>
<path d="M120.422 210.554L128.6 200.331L136.778 210.554C138.383 212.432 139.352 214.87 139.352 217.535C139.352 223.473 134.538 228.287 128.6 228.287C122.662 228.287 117.848 223.473 117.848 217.535C117.848 214.87 118.817 212.432 120.422 210.554Z" fill="url(#paint1_linear_110_2)"/>
<path d="M56.422 210.554L64.6 200.331L72.7779 210.554C74.3829 212.432 75.3519 214.87 75.3519 217.535C75.3519 223.473 70.5381 228.287 64.6 228.287C58.6618 228.287 53.848 223.473 53.848 217.535C53.848 214.87 54.8171 212.432 56.422 210.554Z" fill="url(#paint2_linear_110_2)"/>
<path d="M207.839 186.212C234.768 186.211 256.599 164.38 256.599 137.45C256.599 110.52 234.767 88.6883 207.837 88.6883C207.499 88.6883 207.162 88.6918 206.826 88.6987C201.027 54.1005 170.939 27.736 134.693 27.736C107.325 27.736 83.4679 42.7669 70.9262 65.0238C67.8706 64.5521 64.7401 64.3074 61.5524 64.3074C27.8893 64.3074 0.600006 91.5967 0.600006 125.26C0.600006 158.923 27.8893 186.212 61.5524 186.212C61.5526 186.212 61.5521 186.212 61.5524 186.212L207.839 186.212Z" fill="url(#paint3_linear_110_2)"/>
<defs>
<linearGradient id="paint0_linear_110_2" x1="192.6" y1="200.331" x2="192.6" y2="228.287" gradientUnits="userSpaceOnUse">
<stop stop-color="#1976D2"/>
<stop offset="1" stop-color="#0D47A1"/>
</linearGradient>
<linearGradient id="paint1_linear_110_2" x1="128.6" y1="200.331" x2="128.6" y2="228.287" gradientUnits="userSpaceOnUse">
<stop stop-color="#1976D2"/>
<stop offset="1" stop-color="#0D47A1"/>
</linearGradient>
<linearGradient id="paint2_linear_110_2" x1="64.6" y1="200.331" x2="64.6" y2="228.287" gradientUnits="userSpaceOnUse">
<stop stop-color="#1976D2"/>
<stop offset="1" stop-color="#0D47A1"/>
</linearGradient>
<linearGradient id="paint3_linear_110_2" x1="0.600046" y1="30.296" x2="256.6" y2="183.896" gradientUnits="userSpaceOnUse">
<stop stop-color="#ECEFF1"/>
<stop offset="1" stop-color="#B0BEC5"/>
</linearGradient>
</defs>
</svg>
