<svg width="257" height="257" viewBox="0 0 257 257" fill="none" xmlns="http://www.w3.org/2000/svg">
<path fill-rule="evenodd" clip-rule="evenodd" d="M34.0799 197.92C31.2522 197.92 28.9599 200.212 28.9599 203.04C28.9599 205.868 31.2522 208.16 34.0799 208.16H251.68C254.508 208.16 256.8 205.868 256.8 203.04C256.8 200.212 254.508 197.92 251.68 197.92H34.0799ZM5.91999 217.12C3.09229 217.12 0.799988 219.412 0.799988 222.24C0.799988 225.068 3.09229 227.36 5.91999 227.36H223.52C226.348 227.36 228.64 225.068 228.64 222.24C228.64 219.412 226.348 217.12 223.52 217.12H5.91999Z" fill="url(#paint0_linear_41_9)"/>
<path d="M208.039 188.972C234.968 188.971 256.799 167.14 256.799 140.21C256.799 113.28 234.967 91.4483 208.037 91.4483C207.699 91.4483 207.362 91.4518 207.026 91.4587C201.227 56.8605 171.139 30.496 134.893 30.496C107.525 30.496 83.6678 45.5269 71.1262 67.7838C68.0706 67.3121 64.9401 67.0674 61.7524 67.0674C28.0893 67.0674 0.799988 94.3568 0.799988 128.02C0.799988 161.683 28.0893 188.972 61.7524 188.972C61.7526 188.972 61.7521 188.972 61.7524 188.972L208.039 188.972Z" fill="url(#paint1_linear_41_9)"/>
<defs>
<linearGradient id="paint0_linear_41_9" x1="0.799988" y1="197.92" x2="256.8" y2="227.36" gradientUnits="userSpaceOnUse">
<stop stop-color="#ECEFF1"/>
<stop offset="1" stop-color="#B0BEC5"/>
</linearGradient>
<linearGradient id="paint1_linear_41_9" x1="0.800028" y1="33.056" x2="256.8" y2="186.656" gradientUnits="userSpaceOnUse">
<stop stop-color="#ECEFF1"/>
<stop offset="1" stop-color="#B0BEC5"/>
</linearGradient>
</defs>
</svg>
