<svg width="257" height="259" viewBox="0 0 257 259" fill="none" xmlns="http://www.w3.org/2000/svg">
<path d="M221.628 240.896L206.28 235.909V219.771L221.628 214.784L231.114 227.84L221.628 240.896Z" fill="url(#paint0_linear_26_29)"/>
<path d="M107.053 229.136L117.534 216.864L132.444 223.04L131.178 239.128L115.486 242.896L107.053 229.136Z" fill="url(#paint1_linear_26_29)"/>
<path d="M28.7661 208.86L44.8544 210.126L51.0302 195.216L38.7587 184.736L24.9987 193.168L28.7661 208.86Z" fill="url(#paint2_linear_26_29)"/>
<path d="M179.025 188.672L159.432 235.975C159.432 235.975 168.341 224.872 188.312 226.831" stroke="url(#paint3_linear_26_29)" stroke-width="7.68" stroke-linecap="round" stroke-linejoin="round"/>
<path d="M138.184 188.672L130.836 206.41" stroke="url(#paint4_linear_26_29)" stroke-width="7.68" stroke-linecap="round"/>
<path d="M96.9808 188.672L77.3875 235.975C77.3875 235.975 78.9384 221.824 63.432 209.088" stroke="url(#paint5_linear_26_29)" stroke-width="7.68" stroke-linecap="round" stroke-linejoin="round"/>
<path d="M207.439 170.764C234.368 170.763 256.199 148.932 256.199 122.002C256.199 95.0718 234.367 73.2403 207.437 73.2403C207.099 73.2403 206.762 73.2438 206.426 73.2507C200.627 38.6525 170.539 12.288 134.293 12.288C106.925 12.288 83.0679 27.3189 70.5262 49.5758C67.4706 49.1041 64.3401 48.8594 61.1524 48.8594C27.4893 48.8594 0.199997 76.1488 0.199997 109.812C0.199997 143.475 27.4893 170.764 61.1524 170.764C61.1526 170.764 61.1521 170.764 61.1524 170.764L207.439 170.764Z" fill="url(#paint6_linear_26_29)"/>
<defs>
<linearGradient id="paint0_linear_26_29" x1="218.697" y1="214.784" x2="218.697" y2="240.896" gradientUnits="userSpaceOnUse">
<stop stop-color="#CFD8DC"/>
<stop offset="1" stop-color="#B0BEC5"/>
</linearGradient>
<linearGradient id="paint1_linear_26_29" x1="124.989" y1="219.952" x2="115.486" y2="242.896" gradientUnits="userSpaceOnUse">
<stop stop-color="#CFD8DC"/>
<stop offset="1" stop-color="#B0BEC5"/>
</linearGradient>
<linearGradient id="paint2_linear_26_29" x1="41.4668" y1="185.857" x2="31.4742" y2="209.982" gradientUnits="userSpaceOnUse">
<stop stop-color="#CFD8DC"/>
<stop offset="1" stop-color="#B0BEC5"/>
</linearGradient>
<linearGradient id="paint3_linear_26_29" x1="173.872" y1="188.672" x2="173.872" y2="235.975" gradientUnits="userSpaceOnUse">
<stop stop-color="#CFD8DC"/>
<stop offset="1" stop-color="#B0BEC5"/>
</linearGradient>
<linearGradient id="paint4_linear_26_29" x1="138.646" y1="188.863" x2="131.298" y2="206.602" gradientUnits="userSpaceOnUse">
<stop stop-color="#CFD8DC"/>
<stop offset="1" stop-color="#B0BEC5"/>
</linearGradient>
<linearGradient id="paint5_linear_26_29" x1="80.2064" y1="188.672" x2="80.2064" y2="235.975" gradientUnits="userSpaceOnUse">
<stop stop-color="#CFD8DC"/>
<stop offset="1" stop-color="#B0BEC5"/>
</linearGradient>
<linearGradient id="paint6_linear_26_29" x1="0.200037" y1="14.848" x2="256.2" y2="168.448" gradientUnits="userSpaceOnUse">
<stop stop-color="#B0BEC5"/>
<stop offset="1" stop-color="#616161"/>
</linearGradient>
</defs>
</svg>
