<svg width="257" height="259" viewBox="0 0 257 259" fill="none" xmlns="http://www.w3.org/2000/svg">
<path d="M221.628 241.096L206.28 236.109V219.971L221.628 214.984L231.114 228.04L221.628 241.096Z" fill="url(#paint0_linear_26_29)"/>
<path d="M107.053 229.336L117.534 217.064L132.444 223.24L131.178 239.328L115.486 243.096L107.053 229.336Z" fill="url(#paint1_linear_26_29)"/>
<path d="M28.7661 209.06L44.8544 210.326L51.0302 195.416L38.7587 184.936L24.9987 193.368L28.7661 209.06Z" fill="url(#paint2_linear_26_29)"/>
<path d="M179.025 188.872L159.432 236.175C159.432 236.175 168.341 225.072 188.312 227.031" stroke="url(#paint3_linear_26_29)" stroke-width="7.68" stroke-linecap="round" stroke-linejoin="round"/>
<path d="M138.184 188.872L130.836 206.61" stroke="url(#paint4_linear_26_29)" stroke-width="7.68" stroke-linecap="round"/>
<path d="M96.9808 188.872L77.3875 236.175C77.3875 236.175 78.9384 222.024 63.432 209.288" stroke="url(#paint5_linear_26_29)" stroke-width="7.68" stroke-linecap="round" stroke-linejoin="round"/>
<path d="M207.439 170.964C234.368 170.963 256.199 149.132 256.199 122.202C256.199 95.2718 234.367 73.4403 207.437 73.4403C207.099 73.4403 206.762 73.4438 206.426 73.4507C200.627 38.8525 170.539 12.488 134.293 12.488C106.925 12.488 83.0679 27.5189 70.5262 49.7758C67.4706 49.3041 64.3401 49.0594 61.1524 49.0594C27.4893 49.0594 0.199997 76.3487 0.199997 110.012C0.199997 143.675 27.4893 170.964 61.1524 170.964C61.1526 170.964 61.1521 170.964 61.1524 170.964L207.439 170.964Z" fill="url(#paint6_linear_26_29)"/>
<defs>
<linearGradient id="paint0_linear_26_29" x1="218.697" y1="214.984" x2="218.697" y2="241.096" gradientUnits="userSpaceOnUse">
<stop stop-color="#CFD8DC"/>
<stop offset="1" stop-color="#B0BEC5"/>
</linearGradient>
<linearGradient id="paint1_linear_26_29" x1="124.989" y1="220.152" x2="115.486" y2="243.096" gradientUnits="userSpaceOnUse">
<stop stop-color="#CFD8DC"/>
<stop offset="1" stop-color="#B0BEC5"/>
</linearGradient>
<linearGradient id="paint2_linear_26_29" x1="41.4668" y1="186.057" x2="31.4742" y2="210.182" gradientUnits="userSpaceOnUse">
<stop stop-color="#CFD8DC"/>
<stop offset="1" stop-color="#B0BEC5"/>
</linearGradient>
<linearGradient id="paint3_linear_26_29" x1="173.872" y1="188.872" x2="173.872" y2="236.175" gradientUnits="userSpaceOnUse">
<stop stop-color="#CFD8DC"/>
<stop offset="1" stop-color="#B0BEC5"/>
</linearGradient>
<linearGradient id="paint4_linear_26_29" x1="138.646" y1="189.063" x2="131.298" y2="206.802" gradientUnits="userSpaceOnUse">
<stop stop-color="#CFD8DC"/>
<stop offset="1" stop-color="#B0BEC5"/>
</linearGradient>
<linearGradient id="paint5_linear_26_29" x1="80.2064" y1="188.872" x2="80.2064" y2="236.175" gradientUnits="userSpaceOnUse">
<stop stop-color="#CFD8DC"/>
<stop offset="1" stop-color="#B0BEC5"/>
</linearGradient>
<linearGradient id="paint6_linear_26_29" x1="0.200037" y1="15.048" x2="256.2" y2="168.648" gradientUnits="userSpaceOnUse">
<stop stop-color="#B0BEC5"/>
<stop offset="1" stop-color="#616161"/>
</linearGradient>
</defs>
</svg>
