<svg width="257" height="257" viewBox="0 0 257 257" fill="none" xmlns="http://www.w3.org/2000/svg">
<path fill-rule="evenodd" clip-rule="evenodd" d="M33.68 172.888C30.8523 172.888 28.56 175.18 28.56 178.008C28.56 180.836 30.8523 183.128 33.68 183.128H251.28C254.108 183.128 256.4 180.836 256.4 178.008C256.4 175.18 254.108 172.888 251.28 172.888H33.68ZM5.52002 192.088C2.69233 192.088 0.400024 194.38 0.400024 197.208C0.400024 200.036 2.69233 202.328 5.52002 202.328H223.12C225.948 202.328 228.24 200.036 228.24 197.208C228.24 194.38 225.948 192.088 223.12 192.088H5.52002Z" fill="url(#paint0_linear_35_2)"/>
<path fill-rule="evenodd" clip-rule="evenodd" d="M128.412 55.128C128.412 55.128 142.016 69.6312 153.554 73.3953C165.177 77.1872 184.861 73.3953 184.861 73.3953C184.861 73.3953 187.341 93.2838 194.535 103.169C201.696 113.011 219.748 121.488 219.748 121.488C219.748 121.488 210.118 138.957 210.118 151.128C210.118 155.095 211.141 159.624 212.52 163.928H44.3035C45.6826 159.624 46.7055 155.095 46.7055 151.128C46.7055 138.957 37.0749 121.488 37.0749 121.488C37.0749 121.488 55.1271 113.011 62.2882 103.169C69.4816 93.2838 71.9624 73.3953 71.9624 73.3953C71.9624 73.3953 91.6457 77.1872 103.269 73.3953C114.807 69.6312 128.412 55.128 128.412 55.128Z" fill="url(#paint1_linear_35_2)"/>
<defs>
<linearGradient id="paint0_linear_35_2" x1="0.400024" y1="172.888" x2="256.4" y2="202.328" gradientUnits="userSpaceOnUse">
<stop stop-color="#ECEFF1"/>
<stop offset="1" stop-color="#B0BEC5"/>
</linearGradient>
<linearGradient id="paint1_linear_35_2" x1="23.4684" y1="51.8" x2="223.754" y2="299.364" gradientUnits="userSpaceOnUse">
<stop stop-color="#FFC400"/>
<stop offset="1" stop-color="#FF6F00"/>
</linearGradient>
</defs>
</svg>
