<svg width="257" height="257" viewBox="0 0 257 257" fill="none" xmlns="http://www.w3.org/2000/svg">
<path fill-rule="evenodd" clip-rule="evenodd" d="M33.68 172.688C30.8523 172.688 28.56 174.98 28.56 177.808C28.56 180.636 30.8523 182.928 33.68 182.928H251.28C254.108 182.928 256.4 180.636 256.4 177.808C256.4 174.98 254.108 172.688 251.28 172.688H33.68ZM5.52002 193.168C2.69233 193.168 0.400024 195.46 0.400024 198.288C0.400024 201.116 2.69233 203.408 5.52002 203.408H223.12C225.948 203.408 228.24 201.116 228.24 198.288C228.24 195.46 225.948 193.168 223.12 193.168H5.52002Z" fill="url(#paint0_linear_35_2)"/>
<path fill-rule="evenodd" clip-rule="evenodd" d="M128.412 53.648C128.412 53.648 142.016 68.1512 153.554 71.9154C165.177 75.7072 184.861 71.9154 184.861 71.9154C184.861 71.9154 187.341 91.8038 194.535 101.689C201.696 111.531 219.748 120.008 219.748 120.008C219.748 120.008 210.118 137.477 210.118 149.648C210.118 153.615 211.141 158.144 212.52 162.448H44.3035C45.6826 158.144 46.7055 153.615 46.7055 149.648C46.7055 137.477 37.0749 120.008 37.0749 120.008C37.0749 120.008 55.1271 111.531 62.2882 101.689C69.4816 91.8038 71.9624 71.9154 71.9624 71.9154C71.9624 71.9154 91.6457 75.7072 103.269 71.9154C114.807 68.1512 128.412 53.648 128.412 53.648Z" fill="url(#paint1_linear_35_2)"/>
<defs>
<linearGradient id="paint0_linear_35_2" x1="0.400024" y1="172.688" x2="256.4" y2="202.128" gradientUnits="userSpaceOnUse">
<stop stop-color="#ECEFF1"/>
<stop offset="1" stop-color="#B0BEC5"/>
</linearGradient>
<linearGradient id="paint1_linear_35_2" x1="23.4684" y1="50.32" x2="223.754" y2="297.884" gradientUnits="userSpaceOnUse">
<stop stop-color="#FFC400"/>
<stop offset="1" stop-color="#FF6F00"/>
</linearGradient>
</defs>
</svg>
