<svg width="257" height="257" viewBox="0 0 257 257" fill="none" xmlns="http://www.w3.org/2000/svg">
<path fill-rule="evenodd" clip-rule="evenodd" d="M234.935 160.521C242.175 162.126 249.405 162.867 256.518 162.814C244.507 188.075 222.123 206.499 195.901 213.919C198.677 208.137 200.232 201.657 200.232 194.814C200.232 172.244 183.316 153.624 161.471 150.942C154.25 124.406 129.995 104.895 101.17 104.895C91.5948 104.895 82.5248 107.049 74.4164 110.897C74.7965 107.517 75.3593 104.123 76.1121 100.728C85.9825 56.2049 125.29 25.8155 169.032 25.488C165.978 31.9119 163.594 38.7781 161.989 46.018C150.514 97.7805 183.173 149.045 234.935 160.521ZM185.687 216.214C173.868 218.196 161.478 217.984 149.058 215.23C103.69 205.172 72.9972 164.549 73.8326 119.814C81.8807 115.179 91.2155 112.528 101.17 112.528C128.354 112.528 150.92 132.301 155.27 158.25C155.522 158.245 155.774 158.242 156.028 158.242C176.226 158.242 192.599 174.616 192.599 194.814C192.599 202.805 190.036 210.197 185.687 216.214Z" fill="url(#paint0_linear_6_145)"/>
<path d="M156.029 231.385C176.226 231.384 192.599 215.011 192.599 194.814C192.599 174.616 176.226 158.242 156.028 158.242C155.774 158.242 155.522 158.245 155.27 158.25C150.92 132.301 128.354 112.528 101.17 112.528C80.6438 112.528 62.7509 123.801 53.3447 140.494C51.053 140.14 48.7051 139.957 46.3143 139.957C21.067 139.957 0.600006 160.424 0.600006 185.671C0.600006 210.918 21.067 231.385 46.3143 231.385C46.3145 231.385 46.3141 231.385 46.3143 231.385L156.029 231.385Z" fill="url(#paint1_linear_6_145)"/>
<defs>
<linearGradient id="paint0_linear_6_145" x1="77.4" y1="33.0883" x2="306.576" y2="205.178" gradientUnits="userSpaceOnUse">
<stop stop-color="#B388FF"/>
<stop offset="1" stop-color="#7C4DFF"/>
</linearGradient>
<linearGradient id="paint1_linear_6_145" x1="0.600036" y1="114.448" x2="192.6" y2="229.648" gradientUnits="userSpaceOnUse">
<stop stop-color="#ECEFF1"/>
<stop offset="1" stop-color="#B0BEC5"/>
</linearGradient>
</defs>
</svg>
