<svg width="257" height="257" viewBox="0 0 257 257" fill="none" xmlns="http://www.w3.org/2000/svg">
<path fill-rule="evenodd" clip-rule="evenodd" d="M234.935 160.321C242.175 161.926 249.405 162.667 256.518 162.614C245.016 186.806 223.999 204.727 199.21 212.718C201.547 207.149 202.839 201.032 202.839 194.614C202.839 171.308 185.808 151.98 163.512 148.397C155.446 121.603 130.595 102.088 101.17 102.088C91.7845 102.088 82.8653 104.075 74.8085 107.648C75.1517 105.278 75.5854 102.903 76.1121 100.528C85.9825 56.0049 125.29 25.6155 169.032 25.288C165.978 31.7119 163.594 38.5781 161.989 45.8179C150.514 97.5805 183.173 148.845 234.935 160.321ZM185.687 216.014C173.868 217.996 161.478 217.783 149.058 215.03C103.69 204.972 72.9972 164.349 73.8326 119.614C81.8807 114.979 91.2155 112.328 101.17 112.328C128.354 112.328 150.92 132.101 155.27 158.05C155.522 158.045 155.774 158.042 156.028 158.042C176.226 158.042 192.599 174.416 192.599 194.614C192.599 202.605 190.036 209.997 185.687 216.014Z" fill="url(#paint0_linear_6_145)"/>
<path d="M156.029 231.185C176.226 231.184 192.599 214.811 192.599 194.614C192.599 174.416 176.226 158.042 156.028 158.042C155.774 158.042 155.522 158.045 155.27 158.05C150.92 132.101 128.354 112.328 101.17 112.328C80.6438 112.328 62.7509 123.601 53.3447 140.294C51.053 139.94 48.7051 139.757 46.3143 139.757C21.067 139.757 0.600006 160.224 0.600006 185.471C0.600006 210.718 21.067 231.185 46.3143 231.185C46.3145 231.185 46.3141 231.185 46.3143 231.185L156.029 231.185Z" fill="url(#paint1_linear_6_145)"/>
<defs>
<linearGradient id="paint0_linear_6_145" x1="77.4" y1="32.8883" x2="306.576" y2="204.978" gradientUnits="userSpaceOnUse">
<stop stop-color="#B388FF"/>
<stop offset="1" stop-color="#7C4DFF"/>
</linearGradient>
<linearGradient id="paint1_linear_6_145" x1="0.600036" y1="114.248" x2="192.6" y2="229.448" gradientUnits="userSpaceOnUse">
<stop stop-color="#ECEFF1"/>
<stop offset="1" stop-color="#B0BEC5"/>
</linearGradient>
</defs>
</svg>
