<svg width="257" height="257" viewBox="0 0 257 257" fill="none" xmlns="http://www.w3.org/2000/svg">
<path fill-rule="evenodd" clip-rule="evenodd" d="M164.329 25.488C164.329 25.488 177.933 39.9912 189.471 43.7554C201.094 47.5472 220.778 43.7554 220.778 43.7554C220.778 43.7554 223.259 63.6438 230.452 73.5295C237.613 83.3706 255.665 91.848 255.665 91.848C255.665 91.848 246.035 109.317 246.035 121.488C246.035 133.659 255.665 151.128 255.665 151.128C255.665 151.128 237.613 159.605 230.452 169.447C223.259 179.332 220.778 199.221 220.778 199.221C220.778 199.221 211.142 197.364 201.373 197.548C201.428 196.644 201.456 195.732 201.456 194.814C201.456 172.243 184.54 153.624 162.695 150.941C155.474 124.406 131.219 104.895 102.394 104.895C94.6117 104.895 87.1632 106.318 80.2934 108.917C77.4433 99.9223 72.992 91.848 72.992 91.848C72.992 91.848 91.0442 83.3706 98.2053 73.5295C105.399 63.6438 107.879 43.7554 107.879 43.7554C107.879 43.7554 127.563 47.5472 139.186 43.7554C150.724 39.9912 164.329 25.488 164.329 25.488ZM193.667 198.212C192.193 198.463 190.781 198.793 189.471 199.221C177.933 202.985 164.329 217.488 164.329 217.488C164.329 217.488 150.724 202.985 139.186 199.221C127.563 195.429 107.879 199.221 107.879 199.221C107.879 199.221 105.399 179.332 98.2053 169.447C91.0442 159.605 72.992 151.128 72.992 151.128C72.992 151.128 82.6226 133.659 82.6226 121.488C82.6226 119.863 82.4509 118.143 82.1532 116.383C88.4158 113.895 95.2451 112.528 102.394 112.528C129.578 112.528 152.144 132.301 156.494 158.25C156.746 158.245 156.998 158.242 157.252 158.242C177.45 158.242 193.823 174.616 193.823 194.814C193.823 195.959 193.77 197.093 193.667 198.212Z" fill="url(#paint0_linear_6_173)"/>
<path d="M157.253 231.385C177.45 231.384 193.823 215.011 193.823 194.814C193.823 174.616 177.45 158.242 157.252 158.242C156.998 158.242 156.746 158.245 156.494 158.25C152.144 132.301 129.578 112.528 102.394 112.528C81.8678 112.528 63.9749 123.801 54.5687 140.494C52.277 140.14 49.9291 139.957 47.5383 139.957C22.291 139.957 1.82404 160.424 1.82404 185.671C1.82404 210.918 22.291 231.385 47.5383 231.385C47.5385 231.385 47.5381 231.385 47.5383 231.385L157.253 231.385Z" fill="url(#paint1_linear_6_173)"/>
<defs>
<linearGradient id="paint0_linear_6_173" x1="77.6" y1="33.174" x2="326.888" y2="198.099" gradientUnits="userSpaceOnUse">
<stop stop-color="#FFC400"/>
<stop offset="1" stop-color="#FF6F00"/>
</linearGradient>
<linearGradient id="paint1_linear_6_173" x1="1.82407" y1="114.448" x2="193.824" y2="229.648" gradientUnits="userSpaceOnUse">
<stop stop-color="#ECEFF1"/>
<stop offset="1" stop-color="#B0BEC5"/>
</linearGradient>
</defs>
</svg>
