<svg width="257" height="257" viewBox="0 0 257 257" fill="none" xmlns="http://www.w3.org/2000/svg">
<path d="M215.766 195.706L223.944 185.483L232.122 195.706C233.727 197.584 234.696 200.022 234.696 202.687C234.696 208.625 229.882 213.439 223.944 213.439C218.006 213.439 213.192 208.625 213.192 202.687C213.192 200.022 214.161 197.584 215.766 195.706Z" fill="url(#paint0_linear_33_21)"/>
<path d="M165.168 219.542L176.072 205.912L186.976 219.542C189.116 222.047 190.408 225.297 190.408 228.85C190.408 236.767 183.989 243.186 176.072 243.186C168.154 243.186 161.736 236.767 161.736 228.85C161.736 225.297 163.028 222.047 165.168 219.542Z" fill="url(#paint1_linear_33_21)"/>
<path d="M120.022 195.706L128.2 185.483L136.378 195.706C137.983 197.584 138.952 200.022 138.952 202.687C138.952 208.625 134.138 213.439 128.2 213.439C122.262 213.439 117.448 208.625 117.448 202.687C117.448 200.022 118.417 197.584 120.022 195.706Z" fill="url(#paint2_linear_33_21)"/>
<path d="M69.424 219.542L80.3279 205.912L91.2319 219.542C93.3718 222.047 94.6639 225.297 94.6639 228.85C94.6639 236.767 88.2455 243.186 80.3279 243.186C72.4103 243.186 65.9919 236.767 65.9919 228.85C65.9919 225.297 67.2841 222.047 69.424 219.542Z" fill="url(#paint3_linear_33_21)"/>
<path d="M24.278 195.706L32.4559 185.483L40.6339 195.706C42.2389 197.584 43.2079 200.022 43.2079 202.687C43.2079 208.625 38.3941 213.439 32.4559 213.439C26.5178 213.439 21.704 208.625 21.704 202.687C21.704 200.022 22.6731 197.584 24.278 195.706Z" fill="url(#paint4_linear_33_21)"/>
<path d="M207.439 171.364C234.368 171.363 256.199 149.532 256.199 122.602C256.199 95.6718 234.367 73.8403 207.437 73.8403C207.099 73.8403 206.762 73.8438 206.426 73.8507C200.627 39.2525 170.539 12.888 134.293 12.888C106.925 12.888 83.0679 27.9189 70.5262 50.1758C67.4706 49.7041 64.3401 49.4594 61.1524 49.4594C27.4893 49.4594 0.199997 76.7487 0.199997 110.412C0.199997 144.075 27.4893 171.364 61.1524 171.364C61.1526 171.364 61.1521 171.364 61.1524 171.364L207.439 171.364Z" fill="url(#paint5_linear_33_21)"/>
<defs>
<linearGradient id="paint0_linear_33_21" x1="223.944" y1="185.483" x2="223.944" y2="213.439" gradientUnits="userSpaceOnUse">
<stop stop-color="#1976D2"/>
<stop offset="1" stop-color="#0D47A1"/>
</linearGradient>
<linearGradient id="paint1_linear_33_21" x1="176.072" y1="205.912" x2="176.072" y2="243.186" gradientUnits="userSpaceOnUse">
<stop stop-color="#1976D2"/>
<stop offset="1" stop-color="#0D47A1"/>
</linearGradient>
<linearGradient id="paint2_linear_33_21" x1="128.2" y1="185.483" x2="128.2" y2="213.439" gradientUnits="userSpaceOnUse">
<stop stop-color="#1976D2"/>
<stop offset="1" stop-color="#0D47A1"/>
</linearGradient>
<linearGradient id="paint3_linear_33_21" x1="80.3279" y1="205.912" x2="80.3279" y2="243.186" gradientUnits="userSpaceOnUse">
<stop stop-color="#1976D2"/>
<stop offset="1" stop-color="#0D47A1"/>
</linearGradient>
<linearGradient id="paint4_linear_33_21" x1="32.4559" y1="185.483" x2="32.4559" y2="213.439" gradientUnits="userSpaceOnUse">
<stop stop-color="#1976D2"/>
<stop offset="1" stop-color="#0D47A1"/>
</linearGradient>
<linearGradient id="paint5_linear_33_21" x1="0.200037" y1="15.448" x2="256.2" y2="169.048" gradientUnits="userSpaceOnUse">
<stop stop-color="#ECEFF1"/>
<stop offset="1" stop-color="#B0BEC5"/>
</linearGradient>
</defs>
</svg>
