<svg width="257" height="257" viewBox="0 0 257 257" fill="none" xmlns="http://www.w3.org/2000/svg">
<path d="M215.766 195.906L223.944 185.683L232.122 195.906C233.727 197.784 234.696 200.222 234.696 202.887C234.696 208.825 229.882 213.639 223.944 213.639C218.006 213.639 213.192 208.825 213.192 202.887C213.192 200.222 214.161 197.784 215.766 195.906Z" fill="url(#paint0_linear_33_21)"/>
<path d="M165.168 219.742L176.072 206.112L186.976 219.742C189.116 222.247 190.408 225.497 190.408 229.05C190.408 236.967 183.989 243.386 176.072 243.386C168.154 243.386 161.736 236.967 161.736 229.05C161.736 225.497 163.028 222.247 165.168 219.742Z" fill="url(#paint1_linear_33_21)"/>
<path d="M120.022 195.906L128.2 185.683L136.378 195.906C137.983 197.784 138.952 200.222 138.952 202.887C138.952 208.825 134.138 213.639 128.2 213.639C122.262 213.639 117.448 208.825 117.448 202.887C117.448 200.222 118.417 197.784 120.022 195.906Z" fill="url(#paint2_linear_33_21)"/>
<path d="M69.424 219.742L80.3279 206.112L91.2319 219.742C93.3718 222.247 94.6639 225.497 94.6639 229.05C94.6639 236.967 88.2455 243.386 80.3279 243.386C72.4103 243.386 65.9919 236.967 65.9919 229.05C65.9919 225.497 67.2841 222.247 69.424 219.742Z" fill="url(#paint3_linear_33_21)"/>
<path d="M24.278 195.906L32.4559 185.683L40.6339 195.906C42.2389 197.784 43.2079 200.222 43.2079 202.887C43.2079 208.825 38.3941 213.639 32.4559 213.639C26.5178 213.639 21.704 208.825 21.704 202.887C21.704 200.222 22.6731 197.784 24.278 195.906Z" fill="url(#paint4_linear_33_21)"/>
<path d="M207.439 171.564C234.368 171.563 256.199 149.732 256.199 122.802C256.199 95.8718 234.367 74.0403 207.437 74.0403C207.099 74.0403 206.762 74.0438 206.426 74.0507C200.627 39.4525 170.539 13.088 134.293 13.088C106.925 13.088 83.0679 28.1189 70.5262 50.3758C67.4706 49.9041 64.3401 49.6594 61.1524 49.6594C27.4893 49.6594 0.199997 76.9487 0.199997 110.612C0.199997 144.275 27.4893 171.564 61.1524 171.564C61.1526 171.564 61.1521 171.564 61.1524 171.564L207.439 171.564Z" fill="url(#paint5_linear_33_21)"/>
<defs>
<linearGradient id="paint0_linear_33_21" x1="223.944" y1="185.683" x2="223.944" y2="213.639" gradientUnits="userSpaceOnUse">
<stop stop-color="#1976D2"/>
<stop offset="1" stop-color="#0D47A1"/>
</linearGradient>
<linearGradient id="paint1_linear_33_21" x1="176.072" y1="206.112" x2="176.072" y2="243.386" gradientUnits="userSpaceOnUse">
<stop stop-color="#1976D2"/>
<stop offset="1" stop-color="#0D47A1"/>
</linearGradient>
<linearGradient id="paint2_linear_33_21" x1="128.2" y1="185.683" x2="128.2" y2="213.639" gradientUnits="userSpaceOnUse">
<stop stop-color="#1976D2"/>
<stop offset="1" stop-color="#0D47A1"/>
</linearGradient>
<linearGradient id="paint3_linear_33_21" x1="80.3279" y1="206.112" x2="80.3279" y2="243.386" gradientUnits="userSpaceOnUse">
<stop stop-color="#1976D2"/>
<stop offset="1" stop-color="#0D47A1"/>
</linearGradient>
<linearGradient id="paint4_linear_33_21" x1="32.4559" y1="185.683" x2="32.4559" y2="213.639" gradientUnits="userSpaceOnUse">
<stop stop-color="#1976D2"/>
<stop offset="1" stop-color="#0D47A1"/>
</linearGradient>
<linearGradient id="paint5_linear_33_21" x1="0.200037" y1="15.6479" x2="256.2" y2="169.248" gradientUnits="userSpaceOnUse">
<stop stop-color="#ECEFF1"/>
<stop offset="1" stop-color="#B0BEC5"/>
</linearGradient>
</defs>
</svg>
