<svg width="257" height="257" viewBox="0 0 257 257" fill="none" xmlns="http://www.w3.org/2000/svg">
<path d="M165.768 219.142L176.672 205.512L187.576 219.142C189.716 221.647 191.008 224.897 191.008 228.45C191.008 236.367 184.589 242.786 176.672 242.786C168.754 242.786 162.336 236.367 162.336 228.45C162.336 224.897 163.628 221.647 165.768 219.142Z" fill="url(#paint0_linear_33_69)"/>
<path d="M24.878 195.306L33.0559 185.083L41.2339 195.306C42.8389 197.184 43.8079 199.622 43.8079 202.287C43.8079 208.225 38.9941 213.039 33.0559 213.039C27.1178 213.039 22.304 208.225 22.304 202.287C22.304 199.622 23.2731 197.184 24.878 195.306Z" fill="url(#paint1_linear_33_69)"/>
<path d="M236.089 196.232L237.149 192.274L233.192 191.214L227.502 194.499V187.929L224.605 185.032L221.708 187.929V194.499L216.018 191.214L212.061 192.274L213.121 196.232L218.811 199.517L213.121 202.802L212.061 206.759L216.018 207.819L221.708 204.534V211.104L224.605 214.001L227.502 211.104V204.534L233.192 207.819L237.149 206.759L236.089 202.802L230.399 199.517L236.089 196.232Z" fill="url(#paint2_linear_33_69)"/>
<path d="M140.345 196.232L141.405 192.274L137.448 191.214L131.758 194.499V187.929L128.861 185.032L125.964 187.929V194.499L120.274 191.214L116.317 192.274L117.377 196.232L123.067 199.517L117.377 202.802L116.317 206.759L120.274 207.819L125.964 204.534V211.104L128.861 214.001L131.758 211.104V204.534L137.448 207.819L141.405 206.759L140.345 202.802L134.655 199.517L140.345 196.232Z" fill="url(#paint3_linear_33_69)"/>
<path d="M96.1379 220.358L97.5434 215.112L92.2979 213.706L84.7557 218.061V209.352L80.9157 205.512L77.0757 209.352V218.061L69.5336 213.706L64.288 215.112L65.6936 220.358L73.2357 224.712L65.6936 229.066L64.288 234.312L69.5336 235.718L77.0757 231.363V240.072L80.9157 243.912L84.7557 240.072V231.363L92.2979 235.718L97.5434 234.312L96.1379 229.066L88.5957 224.712L96.1379 220.358Z" fill="url(#paint4_linear_33_69)"/>
<path d="M208.039 170.964C234.968 170.963 256.799 149.132 256.799 122.202C256.799 95.2718 234.967 73.4403 208.037 73.4403C207.699 73.4403 207.362 73.4438 207.026 73.4507C201.227 38.8525 171.139 12.488 134.893 12.488C107.525 12.488 83.6678 27.5189 71.1262 49.7758C68.0706 49.3041 64.9401 49.0594 61.7524 49.0594C28.0893 49.0594 0.799988 76.3487 0.799988 110.012C0.799988 143.675 28.0893 170.964 61.7524 170.964C61.7526 170.964 61.7521 170.964 61.7524 170.964L208.039 170.964Z" fill="url(#paint5_linear_33_69)"/>
<defs>
<linearGradient id="paint0_linear_33_69" x1="176.672" y1="205.512" x2="176.672" y2="242.786" gradientUnits="userSpaceOnUse">
<stop stop-color="#1976D2"/>
<stop offset="1" stop-color="#0D47A1"/>
</linearGradient>
<linearGradient id="paint1_linear_33_69" x1="33.0559" y1="185.083" x2="33.0559" y2="213.039" gradientUnits="userSpaceOnUse">
<stop stop-color="#1976D2"/>
<stop offset="1" stop-color="#0D47A1"/>
</linearGradient>
<linearGradient id="paint2_linear_33_69" x1="224.605" y1="185.032" x2="224.605" y2="214.001" gradientUnits="userSpaceOnUse">
<stop stop-color="#CFD8DC"/>
<stop offset="1" stop-color="#B0BEC5"/>
</linearGradient>
<linearGradient id="paint3_linear_33_69" x1="128.861" y1="185.032" x2="128.861" y2="214.001" gradientUnits="userSpaceOnUse">
<stop stop-color="#CFD8DC"/>
<stop offset="1" stop-color="#B0BEC5"/>
</linearGradient>
<linearGradient id="paint4_linear_33_69" x1="80.9157" y1="205.512" x2="80.9157" y2="243.912" gradientUnits="userSpaceOnUse">
<stop stop-color="#CFD8DC"/>
<stop offset="1" stop-color="#B0BEC5"/>
</linearGradient>
<linearGradient id="paint5_linear_33_69" x1="0.800028" y1="15.048" x2="256.8" y2="168.648" gradientUnits="userSpaceOnUse">
<stop stop-color="#ECEFF1"/>
<stop offset="1" stop-color="#B0BEC5"/>
</linearGradient>
</defs>
</svg>
