<svg width="257" height="256" viewBox="0 0 257 256" fill="none" xmlns="http://www.w3.org/2000/svg">
<path d="M165.768 218.942L176.672 205.312L187.576 218.942C189.716 221.447 191.008 224.697 191.008 228.25C191.008 236.167 184.589 242.586 176.672 242.586C168.754 242.586 162.336 236.167 162.336 228.25C162.336 224.697 163.628 221.447 165.768 218.942Z" fill="url(#paint0_linear_33_69)"/>
<path d="M24.878 195.106L33.0559 184.883L41.2339 195.106C42.8389 196.984 43.8079 199.422 43.8079 202.087C43.8079 208.025 38.9941 212.839 33.0559 212.839C27.1178 212.839 22.304 208.025 22.304 202.087C22.304 199.422 23.2731 196.984 24.878 195.106Z" fill="url(#paint1_linear_33_69)"/>
<path d="M236.089 196.032L237.149 192.074L233.192 191.014L227.502 194.299V187.729L224.605 184.832L221.708 187.729V194.299L216.018 191.014L212.061 192.074L213.121 196.032L218.811 199.317L213.121 202.602L212.061 206.559L216.018 207.619L221.708 204.334V210.904L224.605 213.801L227.502 210.904V204.334L233.192 207.619L237.149 206.559L236.089 202.602L230.399 199.317L236.089 196.032Z" fill="url(#paint2_linear_33_69)"/>
<path d="M140.345 196.032L141.405 192.074L137.448 191.014L131.758 194.299V187.729L128.861 184.832L125.964 187.729V194.299L120.274 191.014L116.317 192.074L117.377 196.032L123.067 199.317L117.377 202.602L116.317 206.559L120.274 207.619L125.964 204.334V210.904L128.861 213.801L131.758 210.904V204.334L137.448 207.619L141.405 206.559L140.345 202.602L134.655 199.317L140.345 196.032Z" fill="url(#paint3_linear_33_69)"/>
<path d="M96.1379 220.158L97.5434 214.912L92.2979 213.506L84.7557 217.861V209.152L80.9157 205.312L77.0757 209.152V217.861L69.5336 213.506L64.288 214.912L65.6936 220.158L73.2357 224.512L65.6936 228.866L64.288 234.112L69.5336 235.518L77.0757 231.163V239.872L80.9157 243.712L84.7557 239.872V231.163L92.2979 235.518L97.5434 234.112L96.1379 228.866L88.5957 224.512L96.1379 220.158Z" fill="url(#paint4_linear_33_69)"/>
<path d="M208.039 170.764C234.968 170.763 256.799 148.932 256.799 122.002C256.799 95.0718 234.967 73.2403 208.037 73.2403C207.699 73.2403 207.362 73.2438 207.026 73.2507C201.227 38.6525 171.139 12.288 134.893 12.288C107.525 12.288 83.6678 27.3189 71.1262 49.5758C68.0706 49.1041 64.9401 48.8594 61.7524 48.8594C28.0893 48.8594 0.799988 76.1488 0.799988 109.812C0.799988 143.475 28.0893 170.764 61.7524 170.764C61.7526 170.764 61.7521 170.764 61.7524 170.764L208.039 170.764Z" fill="url(#paint5_linear_33_69)"/>
<defs>
<linearGradient id="paint0_linear_33_69" x1="176.672" y1="205.312" x2="176.672" y2="242.586" gradientUnits="userSpaceOnUse">
<stop stop-color="#1976D2"/>
<stop offset="1" stop-color="#0D47A1"/>
</linearGradient>
<linearGradient id="paint1_linear_33_69" x1="33.0559" y1="184.883" x2="33.0559" y2="212.839" gradientUnits="userSpaceOnUse">
<stop stop-color="#1976D2"/>
<stop offset="1" stop-color="#0D47A1"/>
</linearGradient>
<linearGradient id="paint2_linear_33_69" x1="224.605" y1="184.832" x2="224.605" y2="213.801" gradientUnits="userSpaceOnUse">
<stop stop-color="#CFD8DC"/>
<stop offset="1" stop-color="#B0BEC5"/>
</linearGradient>
<linearGradient id="paint3_linear_33_69" x1="128.861" y1="184.832" x2="128.861" y2="213.801" gradientUnits="userSpaceOnUse">
<stop stop-color="#CFD8DC"/>
<stop offset="1" stop-color="#B0BEC5"/>
</linearGradient>
<linearGradient id="paint4_linear_33_69" x1="80.9157" y1="205.312" x2="80.9157" y2="243.712" gradientUnits="userSpaceOnUse">
<stop stop-color="#CFD8DC"/>
<stop offset="1" stop-color="#B0BEC5"/>
</linearGradient>
<linearGradient id="paint5_linear_33_69" x1="0.800028" y1="14.848" x2="256.8" y2="168.448" gradientUnits="userSpaceOnUse">
<stop stop-color="#ECEFF1"/>
<stop offset="1" stop-color="#B0BEC5"/>
</linearGradient>
</defs>
</svg>
