<svg width="257" height="256" viewBox="0 0 257 256" fill="none" xmlns="http://www.w3.org/2000/svg">
<path d="M235.689 196.032L236.749 192.074L232.792 191.014L227.102 194.299V187.729L224.205 184.832L221.308 187.729V194.299L215.618 191.014L211.661 192.074L212.721 196.032L218.411 199.317L212.721 202.602L211.661 206.559L215.618 207.619L221.308 204.334V210.904L224.205 213.801L227.102 210.904V204.334L232.792 207.619L236.749 206.559L235.689 202.602L229.999 199.317L235.689 196.032Z" fill="url(#paint0_linear_33_48)"/>
<path d="M191.482 220.158L192.887 214.912L187.642 213.506L180.1 217.861V209.152L176.26 205.312L172.42 209.152V217.861L164.878 213.506L159.632 214.912L161.038 220.158L168.58 224.512L161.038 228.866L159.632 234.112L164.878 235.518L172.42 231.163V239.872L176.26 243.712L180.1 239.872V231.163L187.642 235.518L192.887 234.112L191.482 228.866L183.94 224.512L191.482 220.158Z" fill="url(#paint1_linear_33_48)"/>
<path d="M139.945 196.032L141.005 192.074L137.048 191.014L131.358 194.299V187.729L128.461 184.832L125.564 187.729V194.299L119.874 191.014L115.917 192.074L116.977 196.032L122.667 199.317L116.977 202.602L115.917 206.559L119.874 207.619L125.564 204.334V210.904L128.461 213.801L131.358 210.904V204.334L137.048 207.619L141.005 206.559L139.945 202.602L134.255 199.317L139.945 196.032Z" fill="url(#paint2_linear_33_48)"/>
<path d="M95.7379 220.158L97.1434 214.912L91.8979 213.506L84.3558 217.861V209.152L80.5158 205.312L76.6758 209.152V217.861L69.1336 213.506L63.8881 214.912L65.2936 220.158L72.8357 224.512L65.2936 228.866L63.8881 234.112L69.1336 235.518L76.6758 231.163V239.872L80.5158 243.712L84.3558 239.872V231.163L91.8979 235.518L97.1434 234.112L95.7379 228.866L88.1957 224.512L95.7379 220.158Z" fill="url(#paint3_linear_33_48)"/>
<path d="M44.2006 196.032L45.2609 192.074L41.3037 191.014L35.6138 194.299V187.729L32.7169 184.832L29.82 187.729V194.299L24.1302 191.014L20.1729 192.074L21.2333 196.032L26.9231 199.317L21.2332 202.602L20.1729 206.559L24.1302 207.619L29.82 204.334V210.904L32.7169 213.801L35.6138 210.904V204.334L41.3037 207.619L45.2609 206.559L44.2006 202.602L38.5107 199.317L44.2006 196.032Z" fill="url(#paint4_linear_33_48)"/>
<path d="M207.639 170.764C234.568 170.763 256.399 148.932 256.399 122.002C256.399 95.0718 234.567 73.2403 207.637 73.2403C207.299 73.2403 206.962 73.2438 206.626 73.2507C200.827 38.6525 170.739 12.288 134.493 12.288C107.125 12.288 83.2678 27.3189 70.7262 49.5758C67.6706 49.1041 64.54 48.8594 61.3523 48.8594C27.6893 48.8594 0.399963 76.1488 0.399963 109.812C0.399963 143.475 27.6893 170.764 61.3523 170.764C61.3526 170.764 61.3521 170.764 61.3523 170.764L207.639 170.764Z" fill="url(#paint5_linear_33_48)"/>
<defs>
<linearGradient id="paint0_linear_33_48" x1="224.205" y1="184.832" x2="224.205" y2="213.801" gradientUnits="userSpaceOnUse">
<stop stop-color="#CFD8DC"/>
<stop offset="1" stop-color="#B0BEC5"/>
</linearGradient>
<linearGradient id="paint1_linear_33_48" x1="176.26" y1="205.312" x2="176.26" y2="243.712" gradientUnits="userSpaceOnUse">
<stop stop-color="#CFD8DC"/>
<stop offset="1" stop-color="#B0BEC5"/>
</linearGradient>
<linearGradient id="paint2_linear_33_48" x1="128.461" y1="184.832" x2="128.461" y2="213.801" gradientUnits="userSpaceOnUse">
<stop stop-color="#CFD8DC"/>
<stop offset="1" stop-color="#B0BEC5"/>
</linearGradient>
<linearGradient id="paint3_linear_33_48" x1="80.5157" y1="205.312" x2="80.5157" y2="243.712" gradientUnits="userSpaceOnUse">
<stop stop-color="#CFD8DC"/>
<stop offset="1" stop-color="#B0BEC5"/>
</linearGradient>
<linearGradient id="paint4_linear_33_48" x1="32.7169" y1="184.832" x2="32.7169" y2="213.801" gradientUnits="userSpaceOnUse">
<stop stop-color="#CFD8DC"/>
<stop offset="1" stop-color="#B0BEC5"/>
</linearGradient>
<linearGradient id="paint5_linear_33_48" x1="0.400003" y1="14.848" x2="256.4" y2="168.448" gradientUnits="userSpaceOnUse">
<stop stop-color="#ECEFF1"/>
<stop offset="1" stop-color="#B0BEC5"/>
</linearGradient>
</defs>
</svg>
