<svg width="257" height="257" viewBox="0 0 257 257" fill="none" xmlns="http://www.w3.org/2000/svg">
<path d="M235.689 196.232L236.749 192.274L232.792 191.214L227.102 194.499V187.929L224.205 185.032L221.308 187.929V194.499L215.618 191.214L211.661 192.274L212.721 196.232L218.411 199.517L212.721 202.802L211.661 206.759L215.618 207.819L221.308 204.534V211.104L224.205 214.001L227.102 211.104V204.534L232.792 207.819L236.749 206.759L235.689 202.802L229.999 199.517L235.689 196.232Z" fill="url(#paint0_linear_33_48)"/>
<path d="M191.482 220.358L192.887 215.112L187.642 213.706L180.1 218.061V209.352L176.26 205.512L172.42 209.352V218.061L164.878 213.706L159.632 215.112L161.038 220.358L168.58 224.712L161.038 229.066L159.632 234.312L164.878 235.718L172.42 231.363V240.072L176.26 243.912L180.1 240.072V231.363L187.642 235.718L192.887 234.312L191.482 229.066L183.94 224.712L191.482 220.358Z" fill="url(#paint1_linear_33_48)"/>
<path d="M139.945 196.232L141.005 192.274L137.048 191.214L131.358 194.499V187.929L128.461 185.032L125.564 187.929V194.499L119.874 191.214L115.917 192.274L116.977 196.232L122.667 199.517L116.977 202.802L115.917 206.759L119.874 207.819L125.564 204.534V211.104L128.461 214.001L131.358 211.104V204.534L137.048 207.819L141.005 206.759L139.945 202.802L134.255 199.517L139.945 196.232Z" fill="url(#paint2_linear_33_48)"/>
<path d="M95.7379 220.358L97.1434 215.112L91.8979 213.706L84.3558 218.061V209.352L80.5158 205.512L76.6758 209.352V218.061L69.1336 213.706L63.8881 215.112L65.2936 220.358L72.8357 224.712L65.2936 229.066L63.8881 234.312L69.1336 235.718L76.6758 231.363V240.072L80.5158 243.912L84.3558 240.072V231.363L91.8979 235.718L97.1434 234.312L95.7379 229.066L88.1957 224.712L95.7379 220.358Z" fill="url(#paint3_linear_33_48)"/>
<path d="M44.2006 196.232L45.2609 192.274L41.3037 191.214L35.6138 194.499V187.929L32.7169 185.032L29.82 187.929V194.499L24.1302 191.214L20.1729 192.274L21.2333 196.232L26.9231 199.517L21.2332 202.802L20.1729 206.759L24.1302 207.819L29.82 204.534V211.104L32.7169 214.001L35.6138 211.104V204.534L41.3037 207.819L45.2609 206.759L44.2006 202.802L38.5107 199.517L44.2006 196.232Z" fill="url(#paint4_linear_33_48)"/>
<path d="M207.639 170.964C234.568 170.963 256.399 149.132 256.399 122.202C256.399 95.2718 234.567 73.4403 207.637 73.4403C207.299 73.4403 206.962 73.4438 206.626 73.4507C200.827 38.8525 170.739 12.488 134.493 12.488C107.125 12.488 83.2678 27.5189 70.7262 49.7758C67.6706 49.3041 64.54 49.0594 61.3523 49.0594C27.6893 49.0594 0.399963 76.3487 0.399963 110.012C0.399963 143.675 27.6893 170.964 61.3523 170.964C61.3526 170.964 61.3521 170.964 61.3523 170.964L207.639 170.964Z" fill="url(#paint5_linear_33_48)"/>
<defs>
<linearGradient id="paint0_linear_33_48" x1="224.205" y1="185.032" x2="224.205" y2="214.001" gradientUnits="userSpaceOnUse">
<stop stop-color="#CFD8DC"/>
<stop offset="1" stop-color="#B0BEC5"/>
</linearGradient>
<linearGradient id="paint1_linear_33_48" x1="176.26" y1="205.512" x2="176.26" y2="243.912" gradientUnits="userSpaceOnUse">
<stop stop-color="#CFD8DC"/>
<stop offset="1" stop-color="#B0BEC5"/>
</linearGradient>
<linearGradient id="paint2_linear_33_48" x1="128.461" y1="185.032" x2="128.461" y2="214.001" gradientUnits="userSpaceOnUse">
<stop stop-color="#CFD8DC"/>
<stop offset="1" stop-color="#B0BEC5"/>
</linearGradient>
<linearGradient id="paint3_linear_33_48" x1="80.5157" y1="205.512" x2="80.5157" y2="243.912" gradientUnits="userSpaceOnUse">
<stop stop-color="#CFD8DC"/>
<stop offset="1" stop-color="#B0BEC5"/>
</linearGradient>
<linearGradient id="paint4_linear_33_48" x1="32.7169" y1="185.032" x2="32.7169" y2="214.001" gradientUnits="userSpaceOnUse">
<stop stop-color="#CFD8DC"/>
<stop offset="1" stop-color="#B0BEC5"/>
</linearGradient>
<linearGradient id="paint5_linear_33_48" x1="0.400003" y1="15.048" x2="256.4" y2="168.648" gradientUnits="userSpaceOnUse">
<stop stop-color="#ECEFF1"/>
<stop offset="1" stop-color="#B0BEC5"/>
</linearGradient>
</defs>
</svg>
