<svg width="257" height="256" viewBox="0 0 257 256" fill="none" xmlns="http://www.w3.org/2000/svg">
<path d="M216.166 195.106L224.344 184.883L232.522 195.106C234.127 196.984 235.096 199.422 235.096 202.087C235.096 208.025 230.282 212.839 224.344 212.839C218.406 212.839 213.592 208.025 213.592 202.087C213.592 199.422 214.561 196.984 216.166 195.106Z" fill="url(#paint0_linear_6_185)"/>
<path d="M165.568 218.942L176.472 205.312L187.376 218.942C189.516 221.447 190.808 224.697 190.808 228.25C190.808 236.167 184.389 242.586 176.472 242.586C168.554 242.586 162.136 236.167 162.136 228.25C162.136 224.697 163.428 221.447 165.568 218.942Z" fill="url(#paint1_linear_6_185)"/>
<path d="M69.8239 218.942L80.7279 205.312L91.6319 218.942C93.7717 221.447 95.0638 224.697 95.0638 228.25C95.0638 236.167 88.6454 242.586 80.7278 242.586C72.8103 242.586 66.3918 236.167 66.3918 228.25C66.3918 224.697 67.684 221.447 69.8239 218.942Z" fill="url(#paint2_linear_6_185)"/>
<path d="M24.678 195.106L32.8559 184.883L41.0339 195.106C42.6388 196.984 43.6079 199.422 43.6079 202.087C43.6079 208.025 38.7941 212.839 32.8559 212.839C26.9178 212.839 22.1039 208.025 22.1039 202.087C22.1039 199.422 23.0731 196.984 24.678 195.106Z" fill="url(#paint3_linear_6_185)"/>
<path fill-rule="evenodd" clip-rule="evenodd" d="M256.599 122.002C256.599 148.932 234.768 170.763 207.839 170.764H166.405C164.811 169.668 162.913 169.026 160.914 168.965L170.534 130.484C171.716 125.755 169.402 120.849 165.001 118.754C160.6 116.659 155.332 117.957 152.408 121.856L115.727 170.764H61.5524C27.8893 170.764 0.600006 143.475 0.600006 109.812C0.600006 76.1487 27.8893 48.8594 61.5524 48.8594C64.7401 48.8594 67.8706 49.1041 70.9262 49.5757C83.4679 27.3189 107.325 12.288 134.693 12.288C170.939 12.288 201.027 38.6525 206.826 73.2506C207.162 73.2438 207.499 73.2403 207.837 73.2403C234.767 73.2403 256.599 95.0718 256.599 122.002ZM128.527 170.764L129.88 168.96L144.767 149.11L160.6 128L154.2 153.6L150.36 168.96L149.909 170.764L128.527 170.764Z" fill="url(#paint4_linear_6_185)"/>
<path d="M122.2 179.2L160.6 128L147.8 179.2H160.6L122.2 230.4L135 179.2H122.2Z" fill="url(#paint5_linear_6_185)"/>
<defs>
<linearGradient id="paint0_linear_6_185" x1="224.344" y1="184.883" x2="224.344" y2="212.839" gradientUnits="userSpaceOnUse">
<stop stop-color="#1976D2"/>
<stop offset="1" stop-color="#0D47A1"/>
</linearGradient>
<linearGradient id="paint1_linear_6_185" x1="176.472" y1="205.312" x2="176.472" y2="242.586" gradientUnits="userSpaceOnUse">
<stop stop-color="#1976D2"/>
<stop offset="1" stop-color="#0D47A1"/>
</linearGradient>
<linearGradient id="paint2_linear_6_185" x1="80.7278" y1="205.312" x2="80.7278" y2="242.586" gradientUnits="userSpaceOnUse">
<stop stop-color="#1976D2"/>
<stop offset="1" stop-color="#0D47A1"/>
</linearGradient>
<linearGradient id="paint3_linear_6_185" x1="32.8559" y1="184.883" x2="32.8559" y2="212.839" gradientUnits="userSpaceOnUse">
<stop stop-color="#1976D2"/>
<stop offset="1" stop-color="#0D47A1"/>
</linearGradient>
<linearGradient id="paint4_linear_6_185" x1="0.599998" y1="3.35974" x2="198.425" y2="193.947" gradientUnits="userSpaceOnUse">
<stop stop-color="#B0BEC5"/>
<stop offset="1" stop-color="#616161"/>
</linearGradient>
<linearGradient id="paint5_linear_6_185" x1="141.4" y1="128" x2="141.4" y2="230.4" gradientUnits="userSpaceOnUse">
<stop stop-color="#FFC400"/>
<stop offset="1" stop-color="#FF6F00"/>
</linearGradient>
</defs>
</svg>
