<svg width="257" height="257" viewBox="0 0 257 257" fill="none" xmlns="http://www.w3.org/2000/svg">
<path fill-rule="evenodd" clip-rule="evenodd" d="M256.599 127.978C256.599 154.908 234.768 176.739 207.839 176.74H145.68L155.205 138.643C156.086 135.119 154.361 131.462 151.08 129.9C147.8 128.339 143.874 129.306 141.694 132.212L108.298 176.74H61.5523C27.8893 176.74 0.599945 149.451 0.599945 115.788C0.599945 82.1247 27.8893 54.8354 61.5523 54.8354C64.74 54.8354 67.8705 55.0801 70.9262 55.5517C83.4678 33.2948 107.325 18.2639 134.693 18.2639C170.939 18.2639 201.027 44.6284 206.826 79.2266C207.162 79.2198 207.499 79.2163 207.837 79.2163C234.767 79.2163 256.599 101.048 256.599 127.978ZM117.839 176.74L135.999 152.527L147.8 136.792L143.03 155.873L137.813 176.74L117.839 176.74Z" fill="url(#paint0_linear_33_83)"/>
<path d="M109.4 187.992L147.8 136.792L135 187.992H147.8L109.4 239.192L122.2 187.992H109.4Z" fill="url(#paint1_linear_33_83)"/>
<defs>
<linearGradient id="paint0_linear_33_83" x1="0.599945" y1="23.9566" x2="205.443" y2="195.297" gradientUnits="userSpaceOnUse">
<stop stop-color="#B0BEC5"/>
<stop offset="1" stop-color="#616161"/>
</linearGradient>
<linearGradient id="paint1_linear_33_83" x1="128.6" y1="136.792" x2="128.6" y2="239.192" gradientUnits="userSpaceOnUse">
<stop stop-color="#FFC400"/>
<stop offset="1" stop-color="#FF6F00"/>
</linearGradient>
</defs>
</svg>
