<svg width="257" height="257" viewBox="0 0 257 257" fill="none" xmlns="http://www.w3.org/2000/svg">
<path d="M216.166 195.306L224.344 185.083L232.522 195.306C234.127 197.184 235.096 199.622 235.096 202.287C235.096 208.225 230.282 213.039 224.344 213.039C218.406 213.039 213.592 208.225 213.592 202.287C213.592 199.622 214.561 197.184 216.166 195.306Z" fill="url(#paint0_linear_6_185)"/>
<path d="M165.568 219.142L176.472 205.512L187.376 219.142C189.516 221.647 190.808 224.897 190.808 228.45C190.808 236.367 184.389 242.786 176.472 242.786C168.554 242.786 162.136 236.367 162.136 228.45C162.136 224.897 163.428 221.647 165.568 219.142Z" fill="url(#paint1_linear_6_185)"/>
<path d="M69.8239 219.142L80.7279 205.512L91.6319 219.142C93.7717 221.647 95.0638 224.897 95.0638 228.45C95.0638 236.367 88.6454 242.786 80.7278 242.786C72.8103 242.786 66.3918 236.367 66.3918 228.45C66.3918 224.897 67.684 221.647 69.8239 219.142Z" fill="url(#paint2_linear_6_185)"/>
<path d="M24.678 195.306L32.8559 185.083L41.0339 195.306C42.6388 197.184 43.6079 199.622 43.6079 202.287C43.6079 208.225 38.7941 213.039 32.8559 213.039C26.9178 213.039 22.1039 208.225 22.1039 202.287C22.1039 199.622 23.0731 197.184 24.678 195.306Z" fill="url(#paint3_linear_6_185)"/>
<path fill-rule="evenodd" clip-rule="evenodd" d="M256.599 122.202C256.599 149.132 234.768 170.963 207.839 170.964H157.776L168.005 130.051C168.886 126.527 167.161 122.87 163.88 121.308C160.6 119.747 156.674 120.714 154.494 123.62L118.986 170.964H61.5524C27.8893 170.964 0.600006 143.675 0.600006 110.012C0.600006 76.3487 27.8893 49.0594 61.5524 49.0594C64.7401 49.0594 67.8706 49.3041 70.9262 49.7757C83.4679 27.5189 107.325 12.488 134.693 12.488C170.939 12.488 201.027 38.8525 206.826 73.4506C207.162 73.4438 207.499 73.4403 207.837 73.4403C234.767 73.4403 256.599 95.2718 256.599 122.202ZM128.527 170.964L148.799 143.935L160.6 128.2L155.83 147.281L149.909 170.964L128.527 170.964Z" fill="url(#paint4_linear_6_185)"/>
<path d="M122.2 179.4L160.6 128.2L147.8 179.4H160.6L122.2 230.6L135 179.4H122.2Z" fill="url(#paint5_linear_6_185)"/>
<defs>
<linearGradient id="paint0_linear_6_185" x1="224.344" y1="185.083" x2="224.344" y2="213.039" gradientUnits="userSpaceOnUse">
<stop stop-color="#1976D2"/>
<stop offset="1" stop-color="#0D47A1"/>
</linearGradient>
<linearGradient id="paint1_linear_6_185" x1="176.472" y1="205.512" x2="176.472" y2="242.786" gradientUnits="userSpaceOnUse">
<stop stop-color="#1976D2"/>
<stop offset="1" stop-color="#0D47A1"/>
</linearGradient>
<linearGradient id="paint2_linear_6_185" x1="80.7278" y1="205.512" x2="80.7278" y2="242.786" gradientUnits="userSpaceOnUse">
<stop stop-color="#1976D2"/>
<stop offset="1" stop-color="#0D47A1"/>
</linearGradient>
<linearGradient id="paint3_linear_6_185" x1="32.8559" y1="185.083" x2="32.8559" y2="213.039" gradientUnits="userSpaceOnUse">
<stop stop-color="#1976D2"/>
<stop offset="1" stop-color="#0D47A1"/>
</linearGradient>
<linearGradient id="paint4_linear_6_185" x1="0.599998" y1="3.55974" x2="198.425" y2="194.147" gradientUnits="userSpaceOnUse">
<stop stop-color="#B0BEC5"/>
<stop offset="1" stop-color="#616161"/>
</linearGradient>
<linearGradient id="paint5_linear_6_185" x1="141.4" y1="128.2" x2="141.4" y2="230.6" gradientUnits="userSpaceOnUse">
<stop stop-color="#FFC400"/>
<stop offset="1" stop-color="#FF6F00"/>
</linearGradient>
</defs>
</svg>
