<svg width="257" height="257" viewBox="0 0 257 257" fill="none" xmlns="http://www.w3.org/2000/svg">
<path fill-rule="evenodd" clip-rule="evenodd" d="M46.2799 162.192C43.4522 162.192 41.1599 159.9 41.1599 157.072C41.1599 154.244 43.4522 151.952 46.2799 151.952H231.88C239.656 151.952 245.96 145.648 245.96 137.872C245.96 130.096 239.656 123.792 231.88 123.792H230.715C226.672 123.792 222.795 125.398 219.936 128.257L216.3 131.892C214.301 133.892 211.059 133.892 209.059 131.892C207.06 129.893 207.06 126.651 209.059 124.652L212.695 121.016C217.474 116.237 223.956 113.552 230.715 113.552H231.88C245.311 113.552 256.2 124.44 256.2 137.872C256.2 151.304 245.311 162.192 231.88 162.192H46.2799ZM18.1199 172.432C15.2922 172.432 12.9999 174.724 12.9999 177.552C12.9999 180.38 15.2922 182.672 18.1199 182.672H197.32C208.622 182.672 217.8 191.867 217.8 203.186C217.8 214.468 208.652 223.632 197.388 223.632C190.918 223.632 184.83 220.564 180.981 215.362L179.164 212.907C177.482 210.633 174.275 210.154 172.002 211.836C169.729 213.518 169.25 216.725 170.932 218.998L172.749 221.453C178.53 229.264 187.671 233.872 197.388 233.872C214.326 233.872 228.04 220.106 228.04 203.186C228.04 186.229 214.295 172.432 197.32 172.432H18.1199Z" fill="url(#paint0_linear_45_29)"/>
<path d="M155.629 141.785C175.826 141.784 192.199 125.411 192.199 105.214C192.199 85.0159 175.826 68.6423 155.628 68.6423C155.374 68.6423 155.122 68.6449 154.87 68.65C150.52 42.7014 127.954 22.928 100.77 22.928C80.2438 22.928 62.3509 34.2012 52.9447 50.8939C50.6529 50.5401 48.305 50.3566 45.9143 50.3566C20.667 50.3566 0.199997 70.8236 0.199997 96.0709C0.199997 121.318 20.667 141.785 45.9143 141.785C45.9145 141.785 45.9141 141.785 45.9143 141.785L155.629 141.785Z" fill="url(#paint1_linear_45_29)"/>
<defs>
<linearGradient id="paint0_linear_45_29" x1="0.199993" y1="102.8" x2="256.2" y2="230.8" gradientUnits="userSpaceOnUse">
<stop stop-color="#ECEFF1"/>
<stop offset="1" stop-color="#B0BEC5"/>
</linearGradient>
<linearGradient id="paint1_linear_45_29" x1="0.200027" y1="24.848" x2="192.2" y2="140.048" gradientUnits="userSpaceOnUse">
<stop stop-color="#ECEFF1"/>
<stop offset="1" stop-color="#B0BEC5"/>
</linearGradient>
</defs>
</svg>
