<svg width="257" height="257" viewBox="0 0 257 257" fill="none" xmlns="http://www.w3.org/2000/svg">
<path fill-rule="evenodd" clip-rule="evenodd" d="M46.2799 162.392C43.4522 162.392 41.1599 160.1 41.1599 157.272C41.1599 154.444 43.4522 152.152 46.2799 152.152H231.88C239.656 152.152 245.96 145.848 245.96 138.072C245.96 130.296 239.656 123.992 231.88 123.992H230.715C226.672 123.992 222.795 125.598 219.936 128.457L216.3 132.092C214.301 134.092 211.059 134.092 209.059 132.092C207.06 130.093 207.06 126.851 209.059 124.852L212.695 121.216C217.474 116.437 223.956 113.752 230.715 113.752H231.88C245.311 113.752 256.2 124.64 256.2 138.072C256.2 151.504 245.311 162.392 231.88 162.392H46.2799ZM18.1199 171.352C15.2922 171.352 12.9999 173.644 12.9999 176.472C12.9999 179.3 15.2922 181.592 18.1199 181.592H197.32C208.622 181.592 217.8 190.787 217.8 202.106C217.8 213.388 208.652 222.552 197.388 222.552C190.918 222.552 184.83 219.484 180.981 214.282L179.164 211.826C177.482 209.553 174.275 209.074 172.002 210.756C169.729 212.438 169.25 215.645 170.932 217.918L172.749 220.373C178.53 228.184 187.671 232.792 197.388 232.792C214.326 232.792 228.04 219.026 228.04 202.106C228.04 185.149 214.295 171.352 197.32 171.352H18.1199Z" fill="url(#paint0_linear_45_29)"/>
<path d="M155.629 143.265C175.826 143.264 192.199 126.891 192.199 106.694C192.199 86.4959 175.826 70.1223 155.628 70.1223C155.374 70.1223 155.122 70.1249 154.87 70.13C150.52 44.1814 127.954 24.408 100.77 24.408C80.2438 24.408 62.3509 35.6812 52.9447 52.3739C50.6529 52.0201 48.305 51.8366 45.9143 51.8366C20.667 51.8366 0.199997 72.3036 0.199997 97.5509C0.199997 122.798 20.667 143.265 45.9143 143.265C45.9145 143.265 45.9141 143.265 45.9143 143.265L155.629 143.265Z" fill="url(#paint1_linear_45_29)"/>
<defs>
<linearGradient id="paint0_linear_45_29" x1="0.199992" y1="103" x2="256.2" y2="231" gradientUnits="userSpaceOnUse">
<stop stop-color="#ECEFF1"/>
<stop offset="1" stop-color="#B0BEC5"/>
</linearGradient>
<linearGradient id="paint1_linear_45_29" x1="0.200027" y1="26.328" x2="192.2" y2="141.528" gradientUnits="userSpaceOnUse">
<stop stop-color="#ECEFF1"/>
<stop offset="1" stop-color="#B0BEC5"/>
</linearGradient>
</defs>
</svg>
